solid OpenSCAD_Model
  facet normal -1 0 0
    outer loop
      vertex 0 0 0
      vertex 0 40 10
      vertex 0 40 0
    endloop
  endfacet
  facet normal -1 -0 0
    outer loop
      vertex 0 40 10
      vertex 0 0 0
      vertex 0 0 10
    endloop
  endfacet
  facet normal 1 -0 0
    outer loop
      vertex 40 0 10
      vertex 40 40 0
      vertex 40 40 10
    endloop
  endfacet
  facet normal 1 0 0
    outer loop
      vertex 40 40 0
      vertex 40 0 10
      vertex 40 0 0
    endloop
  endfacet
  facet normal 0 1 -0
    outer loop
      vertex 40 40 0
      vertex 0 40 10
      vertex 40 40 10
    endloop
  endfacet
  facet normal 0 1 0
    outer loop
      vertex 0 40 10
      vertex 40 40 0
      vertex 0 40 0
    endloop
  endfacet
  facet normal 0 0 -1
    outer loop
      vertex 0 0 0
      vertex 40 40 0
      vertex 40 0 0
    endloop
  endfacet
  facet normal -0 0 -1
    outer loop
      vertex 40 40 0
      vertex 0 0 0
      vertex 0 40 0
    endloop
  endfacet
  facet normal 0 -1 0
    outer loop
      vertex 0 0 0
      vertex 40 0 10
      vertex 0 0 10
    endloop
  endfacet
  facet normal 0 -1 -0
    outer loop
      vertex 40 0 10
      vertex 0 0 0
      vertex 40 0 0
    endloop
  endfacet
  facet normal 0 -0.831954 0.554844
    outer loop
      vertex 40 0 10
      vertex 20 20 39.9887
      vertex 0 0 10
    endloop
  endfacet
  facet normal 0 0.831954 0.554844
    outer loop
      vertex 20 20 39.9887
      vertex 40 40 10
      vertex 0 40 10
    endloop
  endfacet
  facet normal -0.831954 0 0.554844
    outer loop
      vertex 20 20 39.9887
      vertex 0 40 10
      vertex 0 0 10
    endloop
  endfacet
  facet normal 0.831954 -0 0.554844
    outer loop
      vertex 40 0 10
      vertex 40 40 10
      vertex 20 20 39.9887
    endloop
  endfacet
endsolid OpenSCAD_Model
