solid OpenSCAD_Model
  facet normal -1 0 0
    outer loop
      vertex 0 0 0
      vertex 0 40 40
      vertex 0 40 0
    endloop
  endfacet
  facet normal -1 -0 0
    outer loop
      vertex 0 40 40
      vertex 0 0 0
      vertex 0 0 40
    endloop
  endfacet
  facet normal -0 0 1
    outer loop
      vertex 0 40 40
      vertex 10 0 40
      vertex 19.9954 40 40
    endloop
  endfacet
  facet normal 0 0 1
    outer loop
      vertex 10 0 40
      vertex 0 40 40
      vertex 0 0 40
    endloop
  endfacet
  facet normal 0 1 0
    outer loop
      vertex 40 40 29.9956
      vertex 40 40 0
      vertex 19.9954 40 29.9956
    endloop
  endfacet
  facet normal 0 1 -0
    outer loop
      vertex 19.9954 40 29.9956
      vertex 0 40 40
      vertex 19.9954 40 40
    endloop
  endfacet
  facet normal 0 1 0
    outer loop
      vertex 0 40 0
      vertex 19.9954 40 29.9956
      vertex 40 40 0
    endloop
  endfacet
  facet normal 0 1 0
    outer loop
      vertex 19.9954 40 29.9956
      vertex 0 40 0
      vertex 0 40 40
    endloop
  endfacet
  facet normal 0 0 -1
    outer loop
      vertex 20 0 0
      vertex 0 0 0
      vertex 20 20 0
    endloop
  endfacet
  facet normal 0 0 -1
    outer loop
      vertex 30 20 0
      vertex 40 0 0
      vertex 30 0 0
    endloop
  endfacet
  facet normal 0 0 -1
    outer loop
      vertex 40 0 0
      vertex 30 20 0
      vertex 40 40 0
    endloop
  endfacet
  facet normal 0 0 -1
    outer loop
      vertex 20 20 0
      vertex 40 40 0
      vertex 30 20 0
    endloop
  endfacet
  facet normal 0 0 -1
    outer loop
      vertex 0 40 0
      vertex 20 20 0
      vertex 0 0 0
    endloop
  endfacet
  facet normal 0 0 -1
    outer loop
      vertex 20 20 0
      vertex 0 40 0
      vertex 40 40 0
    endloop
  endfacet
  facet normal 0 -1 0
    outer loop
      vertex 0 0 40
      vertex 10 0 10
      vertex 10 0 40
    endloop
  endfacet
  facet normal 0 -1 0
    outer loop
      vertex 0 0 0
      vertex 10 0 10
      vertex 0 0 40
    endloop
  endfacet
  facet normal 0 -1 0
    outer loop
      vertex 20 0 0
      vertex 10 0 10
      vertex 0 0 0
    endloop
  endfacet
  facet normal 0 -1 0
    outer loop
      vertex 10 0 10
      vertex 20 0 0
      vertex 20 0 10
    endloop
  endfacet
  facet normal 0 -1 0
    outer loop
      vertex 30 0 0
      vertex 40 0 10
      vertex 30 0 10
    endloop
  endfacet
  facet normal 0 -1 -0
    outer loop
      vertex 40 0 10
      vertex 30 0 0
      vertex 40 0 0
    endloop
  endfacet
  facet normal 0.970169 -0.24243 0
    outer loop
      vertex 10 0 40
      vertex 19.9954 40 29.9956
      vertex 19.9954 40 40
    endloop
  endfacet
  facet normal 0.970169 -0.24243 0
    outer loop
      vertex 19.9954 40 29.9956
      vertex 10 0 40
      vertex 10 0 10
    endloop
  endfacet
  facet normal 1 -0 0
    outer loop
      vertex 40 0 10
      vertex 40 40 0
      vertex 40 40 29.9956
    endloop
  endfacet
  facet normal 1 0 0
    outer loop
      vertex 40 40 0
      vertex 40 0 10
      vertex 40 0 0
    endloop
  endfacet
  facet normal -8.5303e-08 -0.447135 0.894467
    outer loop
      vertex 40 40 29.9956
      vertex 30 20 19.9978
      vertex 40 0 10
    endloop
  endfacet
  facet normal 0 -0.447135 0.894467
    outer loop
      vertex 19.9954 40 29.9956
      vertex 30 20 19.9978
      vertex 40 40 29.9956
    endloop
  endfacet
  facet normal 0 -0.447135 0.894467
    outer loop
      vertex 30 20 19.9978
      vertex 19.9954 40 29.9956
      vertex 20 20 19.9978
    endloop
  endfacet
  facet normal 1.70527e-07 -0.447135 0.894467
    outer loop
      vertex 10 0 10
      vertex 20 20 19.9978
      vertex 19.9954 40 29.9956
    endloop
  endfacet
  facet normal 0 -0.447135 0.894467
    outer loop
      vertex 20 20 19.9978
      vertex 10 0 10
      vertex 20 0 10
    endloop
  endfacet
  facet normal 0 -0.447135 0.894467
    outer loop
      vertex 40 0 10
      vertex 30 20 19.9978
      vertex 30 0 10
    endloop
  endfacet
  facet normal 1 -0 0
    outer loop
      vertex 20 0 10
      vertex 20 20 0
      vertex 20 20 19.9978
    endloop
  endfacet
  facet normal 1 0 0
    outer loop
      vertex 20 20 0
      vertex 20 0 10
      vertex 20 0 0
    endloop
  endfacet
  facet normal -1 0 0
    outer loop
      vertex 30 0 10
      vertex 30 20 0
      vertex 30 0 0
    endloop
  endfacet
  facet normal -1 0 0
    outer loop
      vertex 30 20 0
      vertex 30 0 10
      vertex 30 20 19.9978
    endloop
  endfacet
  facet normal 0 -1 0
    outer loop
      vertex 20 20 0
      vertex 30 20 19.9978
      vertex 20 20 19.9978
    endloop
  endfacet
  facet normal 0 -1 -0
    outer loop
      vertex 30 20 19.9978
      vertex 20 20 0
      vertex 30 20 0
    endloop
  endfacet
endsolid OpenSCAD_Model
