solid OpenSCAD_Model
  facet normal 0 1 -0
    outer loop
      vertex 20 40 20
      vertex 0 40 40
      vertex 20 40 40
    endloop
  endfacet
  facet normal 0 1 0
    outer loop
      vertex 0 40 40
      vertex 20 40 20
      vertex -2.44929e-15 40 20
    endloop
  endfacet
  facet normal 0 0 -1
    outer loop
      vertex 20 20 20
      vertex -2.44929e-15 40 20
      vertex 20 40 20
    endloop
  endfacet
  facet normal 0 -0 -1
    outer loop
      vertex -2.44929e-15 40 20
      vertex 20 20 20
      vertex -6.89019e-15 20 20
    endloop
  endfacet
  facet normal 0 -1 0
    outer loop
      vertex 20 20 20
      vertex 19.9851 20 20.1192
      vertex 19.8796 20 20.1192
    endloop
  endfacet
  facet normal 0 -1 0
    outer loop
      vertex -6.89019e-15 20 20
      vertex 19.8796 20 20.1192
      vertex -4.46479e-15 20 39.8049
    endloop
  endfacet
  facet normal 0 -1 0
    outer loop
      vertex 20 20 20
      vertex 19.8796 20 20.1192
      vertex -6.89019e-15 20 20
    endloop
  endfacet
  facet normal 0 -1 0
    outer loop
      vertex 19.9851 20 20.1192
      vertex 20 20 20
      vertex 20 20 20.1192
    endloop
  endfacet
  facet normal -0 0 1
    outer loop
      vertex 0 40 40
      vertex 5.32001 25.4632 40
      vertex 20 40 40
    endloop
  endfacet
  facet normal 0 0 1
    outer loop
      vertex 5.32001 25.4632 40
      vertex 0 40 40
      vertex -4.39756e-15 20.1951 40
    endloop
  endfacet
  facet normal 1 -0 0
    outer loop
      vertex 20 20.0596 20.0596
      vertex 20 40 20
      vertex 20 40 40
    endloop
  endfacet
  facet normal 1 0 0
    outer loop
      vertex 20 20.0596 20.0596
      vertex 20 20 20
      vertex 20 40 20
    endloop
  endfacet
  facet normal 1 0 0
    outer loop
      vertex 20 20 20
      vertex 20 20.0596 20.0596
      vertex 20 20 20.1192
    endloop
  endfacet
  facet normal -1 2.22045e-16 1.22465e-16
    outer loop
      vertex -2.44929e-15 40 20
      vertex -4.39756e-15 20.1951 40
      vertex 0 40 40
    endloop
  endfacet
  facet normal -1 2.22045e-16 1.22465e-16
    outer loop
      vertex -6.89019e-15 20 20
      vertex -4.39756e-15 20.1951 40
      vertex -2.44929e-15 40 20
    endloop
  endfacet
  facet normal -1 2.22044e-16 1.22465e-16
    outer loop
      vertex -4.39756e-15 20.1951 40
      vertex -6.89019e-15 20 20
      vertex -4.46479e-15 20 39.8049
    endloop
  endfacet
  facet normal 0 0.707107 0.707107
    outer loop
      vertex 20 20 20.1192
      vertex 20 20.0596 20.0596
      vertex 19.9851 20 20.1192
    endloop
  endfacet
  facet normal 0.573576 -0.579228 0.579228
    outer loop
      vertex 20 20.0596 20.0596
      vertex 20 40 40
      vertex 5.32001 25.4632 40
    endloop
  endfacet
  facet normal 0.573574 -0.579231 0.579227
    outer loop
      vertex 5.32001 25.4632 40
      vertex 19.8796 20 20.1192
      vertex 20 20.0596 20.0596
    endloop
  endfacet
  facet normal 0.573576 -0.579228 0.579228
    outer loop
      vertex -4.46479e-15 20 39.8049
      vertex 5.32001 25.4632 40
      vertex -4.39756e-15 20.1951 40
    endloop
  endfacet
  facet normal 0.573576 -0.579228 0.579228
    outer loop
      vertex 5.32001 25.4632 40
      vertex -4.46479e-15 20 39.8049
      vertex 19.8796 20 20.1192
    endloop
  endfacet
  facet normal 0 0.707107 0.707107
    outer loop
      vertex 19.9851 20 20.1192
      vertex 20 20.0596 20.0596
      vertex 19.8796 20 20.1192
    endloop
  endfacet
  facet normal 1 0 0
    outer loop
      vertex 20 20 20
      vertex 20 0 20
      vertex 20 0 0
    endloop
  endfacet
  facet normal -0 0 1
    outer loop
      vertex 20 40 20
      vertex 40 20 20
      vertex 40 40 20
    endloop
  endfacet
  facet normal 0 0 1
    outer loop
      vertex 20 40 20
      vertex 20 20 20
      vertex 40 20 20
    endloop
  endfacet
  facet normal -0 0 1
    outer loop
      vertex 0 40 20
      vertex 20 20 20
      vertex 20 40 20
    endloop
  endfacet
  facet normal 0 0 1
    outer loop
      vertex 0 0 20
      vertex 20 20 20
      vertex 0 40 20
    endloop
  endfacet
  facet normal 0 0 1
    outer loop
      vertex 20 20 20
      vertex 0 0 20
      vertex 20 0 20
    endloop
  endfacet
  facet normal 1 -0 0
    outer loop
      vertex 40 20 20
      vertex 40 40 0
      vertex 40 40 20
    endloop
  endfacet
  facet normal 1 0 0
    outer loop
      vertex 40 40 0
      vertex 40 20 20
      vertex 40 0 0
    endloop
  endfacet
  facet normal 0 0 -1
    outer loop
      vertex 20 0 0
      vertex 40 40 0
      vertex 40 0 0
    endloop
  endfacet
  facet normal 0 0 -1
    outer loop
      vertex 0 40 0
      vertex 20 0 0
      vertex 0 0 0
    endloop
  endfacet
  facet normal 0 0 -1
    outer loop
      vertex 20 0 0
      vertex 0 40 0
      vertex 40 40 0
    endloop
  endfacet
  facet normal 0 1 -0
    outer loop
      vertex 40 40 0
      vertex 20 40 20
      vertex 40 40 20
    endloop
  endfacet
  facet normal 0 1 0
    outer loop
      vertex 0 40 0
      vertex 20 40 20
      vertex 40 40 0
    endloop
  endfacet
  facet normal 0 1 0
    outer loop
      vertex 20 40 20
      vertex 0 40 0
      vertex 0 40 20
    endloop
  endfacet
  facet normal 0 -0.707107 0.707107
    outer loop
      vertex 20 0 0
      vertex 40 20 20
      vertex 20 20 20
    endloop
  endfacet
  facet normal 0 -0.707107 0.707107
    outer loop
      vertex 40 20 20
      vertex 20 0 0
      vertex 40 0 0
    endloop
  endfacet
  facet normal -1 0 0
    outer loop
      vertex 0 0 0
      vertex 0 40 20
      vertex 0 40 0
    endloop
  endfacet
  facet normal -1 -0 0
    outer loop
      vertex 0 40 20
      vertex 0 0 0
      vertex 0 0 20
    endloop
  endfacet
  facet normal 0 -1 0
    outer loop
      vertex 0 0 0
      vertex 20 0 20
      vertex 0 0 20
    endloop
  endfacet
  facet normal 0 -1 -0
    outer loop
      vertex 20 0 20
      vertex 0 0 0
      vertex 20 0 0
    endloop
  endfacet
endsolid OpenSCAD_Model
