solid OpenSCAD_Model
  facet normal 1 -0 0
    outer loop
      vertex 10 0 40
      vertex 10 10 10
      vertex 10 30.0075 40
    endloop
  endfacet
  facet normal 1 0 0
    outer loop
      vertex 10 10 10
      vertex 10 0 40
      vertex 10 0 10
    endloop
  endfacet
  facet normal -0 0 1
    outer loop
      vertex 30 40 40
      vertex 40 30.0075 40
      vertex 40 40 40
    endloop
  endfacet
  facet normal 0 0 1
    outer loop
      vertex 40 30.0075 40
      vertex 30 40 40
      vertex 30 30.0075 40
    endloop
  endfacet
  facet normal 0 0 1
    outer loop
      vertex 20 40 40
      vertex 10 30.0075 40
      vertex 20 30.0075 40
    endloop
  endfacet
  facet normal -0 0 1
    outer loop
      vertex 0 40 40
      vertex 10 30.0075 40
      vertex 20 40 40
    endloop
  endfacet
  facet normal 0 0 1
    outer loop
      vertex 0 0 40
      vertex 10 30.0075 40
      vertex 0 40 40
    endloop
  endfacet
  facet normal 0 0 1
    outer loop
      vertex 10 30.0075 40
      vertex 0 0 40
      vertex 10 0 40
    endloop
  endfacet
  facet normal 1 -0 0
    outer loop
      vertex 40 30.0075 40
      vertex 40 40 0
      vertex 40 40 40
    endloop
  endfacet
  facet normal 1 -0 0
    outer loop
      vertex 40 10 10
      vertex 40 40 0
      vertex 40 30.0075 40
    endloop
  endfacet
  facet normal 1 0 0
    outer loop
      vertex 40 0 0
      vertex 40 10 10
      vertex 40 0 10
    endloop
  endfacet
  facet normal 1 0 0
    outer loop
      vertex 40 10 10
      vertex 40 0 0
      vertex 40 40 0
    endloop
  endfacet
  facet normal 0 1 0
    outer loop
      vertex 40 40 40
      vertex 30 40 20
      vertex 30 40 40
    endloop
  endfacet
  facet normal 0 1 0
    outer loop
      vertex 30 40 20
      vertex 40 40 0
      vertex 20 40 20
    endloop
  endfacet
  facet normal 0 1 -0
    outer loop
      vertex 40 40 0
      vertex 30 40 20
      vertex 40 40 40
    endloop
  endfacet
  facet normal 0 1 -0
    outer loop
      vertex 20 40 20
      vertex 0 40 40
      vertex 20 40 40
    endloop
  endfacet
  facet normal 0 1 0
    outer loop
      vertex 0 40 0
      vertex 20 40 20
      vertex 40 40 0
    endloop
  endfacet
  facet normal 0 1 0
    outer loop
      vertex 20 40 20
      vertex 0 40 0
      vertex 0 40 40
    endloop
  endfacet
  facet normal 0 0 -1
    outer loop
      vertex 0 0 0
      vertex 40 40 0
      vertex 40 0 0
    endloop
  endfacet
  facet normal -0 0 -1
    outer loop
      vertex 40 40 0
      vertex 0 0 0
      vertex 0 40 0
    endloop
  endfacet
  facet normal 0 -0.831954 0.554844
    outer loop
      vertex 10 30.0075 40
      vertex 20 16.6692 20
      vertex 20 30.0075 40
    endloop
  endfacet
  facet normal 0 -0.831954 0.554844
    outer loop
      vertex 20 16.6692 20
      vertex 10 10 10
      vertex 30 16.6692 20
    endloop
  endfacet
  facet normal -5.28942e-08 -0.831954 0.554844
    outer loop
      vertex 10 10 10
      vertex 20 16.6692 20
      vertex 10 30.0075 40
    endloop
  endfacet
  facet normal 0 -0.831954 0.554844
    outer loop
      vertex 30 16.6692 20
      vertex 40 30.0075 40
      vertex 30 30.0075 40
    endloop
  endfacet
  facet normal 5.28942e-08 -0.831954 0.554844
    outer loop
      vertex 30 16.6692 20
      vertex 40 10 10
      vertex 40 30.0075 40
    endloop
  endfacet
  facet normal 0 -0.831954 0.554844
    outer loop
      vertex 40 10 10
      vertex 30 16.6692 20
      vertex 10 10 10
    endloop
  endfacet
  facet normal 1 -0 0
    outer loop
      vertex 20 30.0075 40
      vertex 20 40 20
      vertex 20 40 40
    endloop
  endfacet
  facet normal 1 0 0
    outer loop
      vertex 20 40 20
      vertex 20 30.0075 40
      vertex 20 16.6692 20
    endloop
  endfacet
  facet normal -1 0 0
    outer loop
      vertex 30 40 20
      vertex 30 30.0075 40
      vertex 30 40 40
    endloop
  endfacet
  facet normal -1 0 -0
    outer loop
      vertex 30 30.0075 40
      vertex 30 40 20
      vertex 30 16.6692 20
    endloop
  endfacet
  facet normal -0 0 1
    outer loop
      vertex 20 40 20
      vertex 30 16.6692 20
      vertex 30 40 20
    endloop
  endfacet
  facet normal 0 0 1
    outer loop
      vertex 30 16.6692 20
      vertex 20 40 20
      vertex 20 16.6692 20
    endloop
  endfacet
  facet normal -1 0 0
    outer loop
      vertex 0 0 0
      vertex 0 40 40
      vertex 0 40 0
    endloop
  endfacet
  facet normal -1 -0 0
    outer loop
      vertex 0 40 40
      vertex 0 0 0
      vertex 0 0 40
    endloop
  endfacet
  facet normal -0 0 1
    outer loop
      vertex 10 10 10
      vertex 40 0 10
      vertex 40 10 10
    endloop
  endfacet
  facet normal 0 0 1
    outer loop
      vertex 40 0 10
      vertex 10 10 10
      vertex 10 0 10
    endloop
  endfacet
  facet normal 0 -1 0
    outer loop
      vertex 0 0 40
      vertex 10 0 10
      vertex 10 0 40
    endloop
  endfacet
  facet normal 0 -1 0
    outer loop
      vertex 0 0 0
      vertex 10 0 10
      vertex 0 0 40
    endloop
  endfacet
  facet normal 0 -1 0
    outer loop
      vertex 40 0 0
      vertex 10 0 10
      vertex 0 0 0
    endloop
  endfacet
  facet normal 0 -1 0
    outer loop
      vertex 10 0 10
      vertex 40 0 0
      vertex 40 0 10
    endloop
  endfacet
endsolid OpenSCAD_Model
