solid OpenSCAD_Model
  facet normal 0 1 -0
    outer loop
      vertex 20 40 20
      vertex 0 40 40
      vertex 20 40 40
    endloop
  endfacet
  facet normal 0 1 0
    outer loop
      vertex 0 40 40
      vertex 20 40 20
      vertex -2.44929e-15 40 20
    endloop
  endfacet
  facet normal 0 0 -1
    outer loop
      vertex 8.88178e-15 20 20
      vertex 20 40 20
      vertex 20 20 20
    endloop
  endfacet
  facet normal 0 0 -1
    outer loop
      vertex 8.88178e-15 20 20
      vertex -2.44929e-15 40 20
      vertex 20 40 20
    endloop
  endfacet
  facet normal 0 -0 -1
    outer loop
      vertex -2.44929e-15 40 20
      vertex 8.88178e-15 20 20
      vertex -6.89019e-15 20 20
    endloop
  endfacet
  facet normal 0 -1 0
    outer loop
      vertex -6.89019e-15 20 20
      vertex 8.88178e-15 20 39.8049
      vertex -4.46479e-15 20 39.8049
    endloop
  endfacet
  facet normal 0 -1 -0
    outer loop
      vertex 8.88178e-15 20 39.8049
      vertex -6.89019e-15 20 20
      vertex 8.88178e-15 20 20
    endloop
  endfacet
  facet normal 0 -1 0
    outer loop
      vertex 20 20 20
      vertex 19.9851 20 20.1192
      vertex 19.8808 20 20.1192
    endloop
  endfacet
  facet normal 0 -1 0
    outer loop
      vertex 19.9851 20 20.1192
      vertex 20 20 20
      vertex 20 20 20.1192
    endloop
  endfacet
  facet normal -1 2.22045e-16 1.22465e-16
    outer loop
      vertex -2.44929e-15 40 20
      vertex -4.39756e-15 20.1951 40
      vertex 0 40 40
    endloop
  endfacet
  facet normal -1 2.22045e-16 1.22465e-16
    outer loop
      vertex -6.89019e-15 20 20
      vertex -4.39756e-15 20.1951 40
      vertex -2.44929e-15 40 20
    endloop
  endfacet
  facet normal -1 2.22044e-16 1.22465e-16
    outer loop
      vertex -4.39756e-15 20.1951 40
      vertex -6.89019e-15 20 20
      vertex -4.46479e-15 20 39.8049
    endloop
  endfacet
  facet normal -0 0 1
    outer loop
      vertex 0 40 40
      vertex 5.32001 25.4632 40
      vertex 20 40 40
    endloop
  endfacet
  facet normal 0 0 1
    outer loop
      vertex 5.32001 25.4632 40
      vertex 0 40 40
      vertex -4.39756e-15 20.1951 40
    endloop
  endfacet
  facet normal 1 -0 0
    outer loop
      vertex 20 20.0596 20.0596
      vertex 20 40 20
      vertex 20 40 40
    endloop
  endfacet
  facet normal 1 0 0
    outer loop
      vertex 20 20.0596 20.0596
      vertex 20 20 20
      vertex 20 40 20
    endloop
  endfacet
  facet normal 1 0 0
    outer loop
      vertex 20 20 20
      vertex 20 20.0596 20.0596
      vertex 20 20 20.1192
    endloop
  endfacet
  facet normal 0 0.707107 0.707107
    outer loop
      vertex 20 20 20.1192
      vertex 20 20.0596 20.0596
      vertex 19.9851 20 20.1192
    endloop
  endfacet
  facet normal 0.573576 -0.579228 0.579228
    outer loop
      vertex 20 20.0596 20.0596
      vertex 20 40 40
      vertex 5.32001 25.4632 40
    endloop
  endfacet
  facet normal 0.573574 -0.579231 0.579227
    outer loop
      vertex 5.32001 25.4632 40
      vertex 19.8796 20 20.1192
      vertex 20 20.0596 20.0596
    endloop
  endfacet
  facet normal 0.573576 -0.579228 0.579228
    outer loop
      vertex 5.32001 25.4632 40
      vertex 8.88178e-15 20 39.8049
      vertex 19.8796 20 20.1192
    endloop
  endfacet
  facet normal 0.573576 -0.579228 0.579228
    outer loop
      vertex -4.39756e-15 20.1951 40
      vertex 8.88178e-15 20 39.8049
      vertex 5.32001 25.4632 40
    endloop
  endfacet
  facet normal 0 -0.707107 0.707107
    outer loop
      vertex 8.88178e-15 20 39.8049
      vertex -4.39756e-15 20.1951 40
      vertex -4.46479e-15 20 39.8049
    endloop
  endfacet
  facet normal 0 0.707107 0.707107
    outer loop
      vertex 20 20.0596 20.0596
      vertex 19.8808 20 20.1192
      vertex 19.9851 20 20.1192
    endloop
  endfacet
  facet normal 0 0.707107 0.707107
    outer loop
      vertex 19.8808 20 20.1192
      vertex 20 20.0596 20.0596
      vertex 19.8796 20 20.1192
    endloop
  endfacet
  facet normal -1.22465e-16 0 -1
    outer loop
      vertex 20 4.44089e-15 2.44929e-15
      vertex 40 20 0
      vertex 40 4.93038e-31 0
    endloop
  endfacet
  facet normal -1.22465e-16 0 -1
    outer loop
      vertex 40 20 0
      vertex 20 4.44089e-15 2.44929e-15
      vertex 20 20 2.44929e-15
    endloop
  endfacet
  facet normal -2.22041e-16 -1 2.72372e-21
    outer loop
      vertex 40 4.93038e-31 0
      vertex 39.9851 3.29946e-18 0.119179
      vertex 39.8796 2.67237e-17 0.119179
    endloop
  endfacet
  facet normal -2.22045e-16 -1 0
    outer loop
      vertex 20 4.44089e-15 2.44929e-15
      vertex 39.8796 2.67237e-17 0.119179
      vertex 20 4.44089e-15 19.8049
    endloop
  endfacet
  facet normal -2.22045e-16 -1 -1.20768e-21
    outer loop
      vertex 40 4.93038e-31 0
      vertex 39.8796 2.67237e-17 0.119179
      vertex 20 4.44089e-15 2.44929e-15
    endloop
  endfacet
  facet normal -2.22063e-16 -1 -2.37915e-32
    outer loop
      vertex 39.9851 3.29946e-18 0.119179
      vertex 40 4.93038e-31 0
      vertex 40 4.901e-31 0.119179
    endloop
  endfacet
  facet normal -0 0 1
    outer loop
      vertex 20 20 20
      vertex 25.32 5.46324 20
      vertex 40 20 20
    endloop
  endfacet
  facet normal 0 0 1
    outer loop
      vertex 25.32 5.46324 20
      vertex 20 20 20
      vertex 20 0.19514 20
    endloop
  endfacet
  facet normal 1 -0 0
    outer loop
      vertex 40 0.0595894 0.0595894
      vertex 40 20 0
      vertex 40 20 20
    endloop
  endfacet
  facet normal 1 0 0
    outer loop
      vertex 40 0.0595894 0.0595894
      vertex 40 4.93038e-31 0
      vertex 40 20 0
    endloop
  endfacet
  facet normal 1 0 -0
    outer loop
      vertex 40 4.93038e-31 0
      vertex 40 0.0595894 0.0595894
      vertex 40 4.901e-31 0.119179
    endloop
  endfacet
  facet normal 1.57022e-16 0.707107 0.707107
    outer loop
      vertex 40 4.901e-31 0.119179
      vertex 40 0.0595894 0.0595894
      vertex 39.9851 3.29946e-18 0.119179
    endloop
  endfacet
  facet normal 0.573576 -0.579228 0.579228
    outer loop
      vertex 40 0.0595894 0.0595894
      vertex 40 20 20
      vertex 25.32 5.46324 20
    endloop
  endfacet
  facet normal 0.573577 -0.579229 0.579227
    outer loop
      vertex 20 4.44089e-15 19.8049
      vertex 25.32 5.46324 20
      vertex 20 0.19514 20
    endloop
  endfacet
  facet normal 0.573576 -0.579228 0.579228
    outer loop
      vertex 39.8796 2.67237e-17 0.119179
      vertex 25.32 5.46324 20
      vertex 20 4.44089e-15 19.8049
    endloop
  endfacet
  facet normal 0.573574 -0.579231 0.579227
    outer loop
      vertex 25.32 5.46324 20
      vertex 39.8796 2.67237e-17 0.119179
      vertex 40 0.0595894 0.0595894
    endloop
  endfacet
  facet normal 1.57006e-16 0.707107 0.707107
    outer loop
      vertex 39.9851 3.29946e-18 0.119179
      vertex 40 0.0595894 0.0595894
      vertex 39.8796 2.67237e-17 0.119179
    endloop
  endfacet
  facet normal -1 0 0
    outer loop
      vertex 20 40 20
      vertex 20 20 20
      vertex 20 40 40
    endloop
  endfacet
  facet normal 1 -0 0
    outer loop
      vertex 40 20 20
      vertex 40 40 0
      vertex 40 40 40
    endloop
  endfacet
  facet normal 1 0 0
    outer loop
      vertex 40 40 0
      vertex 40 20 20
      vertex 40 20 0
    endloop
  endfacet
  facet normal 0 1 0
    outer loop
      vertex 40 40 40
      vertex 20 40 20
      vertex 20 40 40
    endloop
  endfacet
  facet normal 0 1 -0
    outer loop
      vertex 40 40 0
      vertex 20 40 20
      vertex 40 40 40
    endloop
  endfacet
  facet normal 0 1 0
    outer loop
      vertex 0 40 0
      vertex 20 40 20
      vertex 40 40 0
    endloop
  endfacet
  facet normal 0 1 0
    outer loop
      vertex 20 40 20
      vertex 0 40 0
      vertex 0 40 20
    endloop
  endfacet
  facet normal 0 0 1
    outer loop
      vertex 20 40 20
      vertex 8.88178e-15 20 20
      vertex 20 20 20
    endloop
  endfacet
  facet normal 0 0 1
    outer loop
      vertex 0 0 20
      vertex 8.88178e-15 20 20
      vertex 0 40 20
    endloop
  endfacet
  facet normal -0 0 1
    outer loop
      vertex 0 40 20
      vertex 8.88178e-15 20 20
      vertex 20 40 20
    endloop
  endfacet
  facet normal 0 0 1
    outer loop
      vertex 4.44089e-15 8.88178e-15 20
      vertex 20 0 20
      vertex 20 4.44089e-15 20
    endloop
  endfacet
  facet normal 0 0 1
    outer loop
      vertex 4.44089e-15 8.88178e-15 20
      vertex 0 0 20
      vertex 20 0 20
    endloop
  endfacet
  facet normal 0 0 1
    outer loop
      vertex 8.88178e-15 20 20
      vertex 0 0 20
      vertex 4.44089e-15 8.88178e-15 20
    endloop
  endfacet
  facet normal 0 -0.707107 0.707107
    outer loop
      vertex 20 20 20
      vertex 40 40 40
      vertex 20 40 40
    endloop
  endfacet
  facet normal 0 -0.707107 0.707107
    outer loop
      vertex 40 40 40
      vertex 20 20 20
      vertex 40 20 20
    endloop
  endfacet
  facet normal -2.22045e-16 -1 -0
    outer loop
      vertex 4.44089e-15 8.88178e-15 40
      vertex 4.44089e-15 8.88178e-15 20
      vertex 20 4.44089e-15 20
    endloop
  endfacet
  facet normal 0 1 0
    outer loop
      vertex 19.8808 20 20.1192
      vertex 8.88178e-15 20 39.8049
      vertex 8.88178e-15 20 40
    endloop
  endfacet
  facet normal 0 1 0
    outer loop
      vertex 8.88178e-15 20 39.8049
      vertex 19.8808 20 20.1192
      vertex 19.8796 20 20.1192
    endloop
  endfacet
  facet normal -1 2.22045e-16 0
    outer loop
      vertex 4.44089e-15 8.88178e-15 20
      vertex 8.88178e-15 20 39.8049
      vertex 8.88178e-15 20 20
    endloop
  endfacet
  facet normal -1 2.22045e-16 0
    outer loop
      vertex 4.44089e-15 8.88178e-15 40
      vertex 8.88178e-15 20 39.8049
      vertex 4.44089e-15 8.88178e-15 20
    endloop
  endfacet
  facet normal -1 2.22045e-16 0
    outer loop
      vertex 8.88178e-15 20 39.8049
      vertex 4.44089e-15 8.88178e-15 40
      vertex 8.88178e-15 20 40
    endloop
  endfacet
  facet normal 0.707107 1.59507e-18 0.707107
    outer loop
      vertex 20 0.19514 20
      vertex 19.8808 20 20.1192
      vertex 8.88178e-15 20 40
    endloop
  endfacet
  facet normal 0.707107 0 0.707107
    outer loop
      vertex 19.8808 20 20.1192
      vertex 20 0.19514 20
      vertex 20 20 20
    endloop
  endfacet
  facet normal 0.707107 -1.57009e-16 0.707107
    outer loop
      vertex 4.44089e-15 8.88178e-15 40
      vertex 20 0.19514 20
      vertex 8.88178e-15 20 40
    endloop
  endfacet
  facet normal 0.707107 0 0.707107
    outer loop
      vertex 20 0.19514 20
      vertex 4.44089e-15 8.88178e-15 40
      vertex 20 4.44089e-15 20
    endloop
  endfacet
  facet normal -1 0 0
    outer loop
      vertex 0 0 0
      vertex 0 40 20
      vertex 0 40 0
    endloop
  endfacet
  facet normal -1 -0 0
    outer loop
      vertex 0 40 20
      vertex 0 0 0
      vertex 0 0 20
    endloop
  endfacet
  facet normal 0 0 -1
    outer loop
      vertex 20 0 0
      vertex 0 0 0
      vertex 20 20 0
    endloop
  endfacet
  facet normal 0 0 -1
    outer loop
      vertex 20 20 0
      vertex 40 40 0
      vertex 40 20 0
    endloop
  endfacet
  facet normal 0 0 -1
    outer loop
      vertex 0 40 0
      vertex 20 20 0
      vertex 0 0 0
    endloop
  endfacet
  facet normal 0 0 -1
    outer loop
      vertex 20 20 0
      vertex 0 40 0
      vertex 40 40 0
    endloop
  endfacet
  facet normal 0 -1 0
    outer loop
      vertex 20 20 2.44929e-15
      vertex 20 20 0
      vertex 40 20 0
    endloop
  endfacet
  facet normal 1 -0 0
    outer loop
      vertex 20 4.44089e-15 20
      vertex 20 4.44089e-15 19.8049
      vertex 20 0.19514 20
    endloop
  endfacet
  facet normal 1 -0 0
    outer loop
      vertex 20 0 20
      vertex 20 4.44089e-15 19.8049
      vertex 20 4.44089e-15 20
    endloop
  endfacet
  facet normal 1 0 0
    outer loop
      vertex 20 0 0
      vertex 20 4.44089e-15 19.8049
      vertex 20 0 20
    endloop
  endfacet
  facet normal 1 -0 0
    outer loop
      vertex 20 4.44089e-15 2.44929e-15
      vertex 20 20 0
      vertex 20 20 2.44929e-15
    endloop
  endfacet
  facet normal 1 0 0
    outer loop
      vertex 20 4.44089e-15 2.44929e-15
      vertex 20 0 0
      vertex 20 20 0
    endloop
  endfacet
  facet normal 1 0 0
    outer loop
      vertex 20 4.44089e-15 19.8049
      vertex 20 0 0
      vertex 20 4.44089e-15 2.44929e-15
    endloop
  endfacet
  facet normal 0 -1 0
    outer loop
      vertex 0 0 0
      vertex 20 0 20
      vertex 0 0 20
    endloop
  endfacet
  facet normal 0 -1 -0
    outer loop
      vertex 20 0 20
      vertex 0 0 0
      vertex 20 0 0
    endloop
  endfacet
endsolid OpenSCAD_Model
