solid OpenSCAD_Model
  facet normal -1 0 0
    outer loop
      vertex 0 40 0
      vertex 0 0 0
      vertex 0 40 40
    endloop
  endfacet
  facet normal 1 0 0
    outer loop
      vertex 20 40 40
      vertex 20 20 20
      vertex 20 40 2.44929e-15
    endloop
  endfacet
  facet normal 1 0 0
    outer loop
      vertex 20 2.44929e-15 2.44929e-15
      vertex 20 0 0
      vertex 20 2.44929e-15 0
    endloop
  endfacet
  facet normal 0 0 -1
    outer loop
      vertex 0 0 0
      vertex 20 2.44929e-15 0
      vertex 20 0 0
    endloop
  endfacet
  facet normal -0 0 -1
    outer loop
      vertex 20 2.44929e-15 0
      vertex 0 0 0
      vertex 20 40 0
    endloop
  endfacet
  facet normal -0 0 -1
    outer loop
      vertex 20 40 0
      vertex 0 0 0
      vertex 0 40 0
    endloop
  endfacet
  facet normal 0 0 -1
    outer loop
      vertex 20 2.44929e-15 0
      vertex 40 40 0
      vertex 40 0 0
    endloop
  endfacet
  facet normal -0 0 -1
    outer loop
      vertex 40 40 0
      vertex 20 2.44929e-15 0
      vertex 20 40 0
    endloop
  endfacet
  facet normal 0 1 -0
    outer loop
      vertex 20 40 2.44929e-15
      vertex 0 40 40
      vertex 20 40 40
    endloop
  endfacet
  facet normal 0 1 0
    outer loop
      vertex 0 40 0
      vertex 20 40 2.44929e-15
      vertex 20 40 0
    endloop
  endfacet
  facet normal 0 1 0
    outer loop
      vertex 20 40 2.44929e-15
      vertex 0 40 0
      vertex 0 40 40
    endloop
  endfacet
  facet normal 0 -0.707107 0.707107
    outer loop
      vertex 0 40 40
      vertex 20 20 20
      vertex 20 40 40
    endloop
  endfacet
  facet normal 0 -0.707107 0.707107
    outer loop
      vertex 0 0 0
      vertex 20 20 20
      vertex 0 40 40
    endloop
  endfacet
  facet normal 0 -0.707107 0.707107
    outer loop
      vertex 20 20 20
      vertex 0 0 0
      vertex 20 2.44929e-15 2.44929e-15
    endloop
  endfacet
  facet normal 0 -0.707107 0.707107
    outer loop
      vertex 20 2.44929e-15 2.44929e-15
      vertex 0 0 0
      vertex 20 0 0
    endloop
  endfacet
  facet normal 1 0 0
    outer loop
      vertex 40 0 40
      vertex 40 0 0
      vertex 40 40 0
    endloop
  endfacet
  facet normal -1 -0 0
    outer loop
      vertex 20 20 20
      vertex 20 2.44929e-15 2.44929e-15
      vertex 20 2.44929e-15 40
    endloop
  endfacet
  facet normal -1.22465e-16 -1 0
    outer loop
      vertex 20 2.44929e-15 2.44929e-15
      vertex 40 0 40
      vertex 20 2.44929e-15 40
    endloop
  endfacet
  facet normal -1.22465e-16 -1 0
    outer loop
      vertex 40 0 0
      vertex 20 2.44929e-15 2.44929e-15
      vertex 20 2.44929e-15 0
    endloop
  endfacet
  facet normal -1.22465e-16 -1 0
    outer loop
      vertex 20 2.44929e-15 2.44929e-15
      vertex 40 0 0
      vertex 40 0 40
    endloop
  endfacet
  facet normal 8.65956e-17 0.707107 0.707107
    outer loop
      vertex 40 0 40
      vertex 20 20 20
      vertex 20 2.44929e-15 40
    endloop
  endfacet
  facet normal 0 0.707107 0.707107
    outer loop
      vertex 40 40 0
      vertex 20 20 20
      vertex 40 0 40
    endloop
  endfacet
  facet normal 1.00486e-16 0.707107 0.707107
    outer loop
      vertex 20 20 20
      vertex 40 40 0
      vertex 20 40 2.44929e-15
    endloop
  endfacet
  facet normal 0 1 0
    outer loop
      vertex 20 40 2.44929e-15
      vertex 40 40 0
      vertex 20 40 0
    endloop
  endfacet
endsolid OpenSCAD_Model
