solid OpenSCAD_Model
  facet normal -1 0 0
    outer loop
      vertex 0 0 20
      vertex 0 40 0
      vertex 0 0 0
    endloop
  endfacet
  facet normal -1 0 0
    outer loop
      vertex 0 40 0
      vertex 0 0 20
      vertex 0 40 39.9433
    endloop
  endfacet
  facet normal -0 0 1
    outer loop
      vertex 20 40 40
      vertex 40 20 40
      vertex 40 40 40
    endloop
  endfacet
  facet normal 0 0 1
    outer loop
      vertex 40 20 40
      vertex 20 40 40
      vertex 20 20 40
    endloop
  endfacet
  facet normal 1 0 0
    outer loop
      vertex 40 20 20
      vertex 40 40 40
      vertex 40 20 40
    endloop
  endfacet
  facet normal 1 0 0
    outer loop
      vertex 40 40 40
      vertex 40 20 20
      vertex 40 40 0
    endloop
  endfacet
  facet normal 1 0 0
    outer loop
      vertex 40 0 0
      vertex 40 20 20
      vertex 40 0 20
    endloop
  endfacet
  facet normal 1 0 0
    outer loop
      vertex 40 20 20
      vertex 40 0 0
      vertex 40 40 0
    endloop
  endfacet
  facet normal 0 1 0
    outer loop
      vertex 40 40 40
      vertex 20 40 39.9433
      vertex 20 40 40
    endloop
  endfacet
  facet normal 0 1 -0
    outer loop
      vertex 40 40 0
      vertex 20 40 39.9433
      vertex 40 40 40
    endloop
  endfacet
  facet normal 0 1 0
    outer loop
      vertex 0 40 0
      vertex 20 40 39.9433
      vertex 40 40 0
    endloop
  endfacet
  facet normal 0 1 0
    outer loop
      vertex 20 40 39.9433
      vertex 0 40 0
      vertex 0 40 39.9433
    endloop
  endfacet
  facet normal 0 0 -1
    outer loop
      vertex 0 0 0
      vertex 40 40 0
      vertex 40 0 0
    endloop
  endfacet
  facet normal -0 0 -1
    outer loop
      vertex 40 40 0
      vertex 0 0 0
      vertex 0 40 0
    endloop
  endfacet
  facet normal 0 -1 0
    outer loop
      vertex 0 0 0
      vertex 20 0 20
      vertex 0 0 20
    endloop
  endfacet
  facet normal 0 -1 0
    outer loop
      vertex 40 0 0
      vertex 20 0 20
      vertex 0 0 0
    endloop
  endfacet
  facet normal 0 -1 0
    outer loop
      vertex 20 0 20
      vertex 40 0 0
      vertex 40 0 20
    endloop
  endfacet
  facet normal 1 0 0
    outer loop
      vertex 20 20 29.9716
      vertex 20 0 20
      vertex 20 20 20
    endloop
  endfacet
  facet normal -1 0 0
    outer loop
      vertex 20 20 40
      vertex 20 40 39.9433
      vertex 20 20 29.9716
    endloop
  endfacet
  facet normal -1 0 0
    outer loop
      vertex 20 40 39.9433
      vertex 20 20 40
      vertex 20 40 40
    endloop
  endfacet
  facet normal 0 -0.446198 0.894934
    outer loop
      vertex 0 40 39.9433
      vertex 20 20 29.9716
      vertex 20 40 39.9433
    endloop
  endfacet
  facet normal 0 -0.446198 0.894934
    outer loop
      vertex 0 0 20
      vertex 20 20 29.9716
      vertex 0 40 39.9433
    endloop
  endfacet
  facet normal 0 -0.446198 0.894934
    outer loop
      vertex 20 20 29.9716
      vertex 0 0 20
      vertex 20 0 20
    endloop
  endfacet
  facet normal -0 0 1
    outer loop
      vertex 20 20 20
      vertex 40 0 20
      vertex 40 20 20
    endloop
  endfacet
  facet normal 0 0 1
    outer loop
      vertex 40 0 20
      vertex 20 20 20
      vertex 20 0 20
    endloop
  endfacet
  facet normal 0 -1 0
    outer loop
      vertex 20 20 29.9716
      vertex 40 20 40
      vertex 20 20 40
    endloop
  endfacet
  facet normal 0 -1 0
    outer loop
      vertex 40 20 20
      vertex 20 20 29.9716
      vertex 20 20 20
    endloop
  endfacet
  facet normal 0 -1 0
    outer loop
      vertex 20 20 29.9716
      vertex 40 20 20
      vertex 40 20 40
    endloop
  endfacet
endsolid OpenSCAD_Model
