solid OpenSCAD_Model
  facet normal -1 0 0
    outer loop
      vertex 0 0 0
      vertex 0 40 20
      vertex 0 40 0
    endloop
  endfacet
  facet normal -1 -0 0
    outer loop
      vertex 0 40 20
      vertex 0 0 0
      vertex 0 0 20
    endloop
  endfacet
  facet normal -0 0 1
    outer loop
      vertex 0 40 20
      vertex 10 0 20
      vertex 10 40 20
    endloop
  endfacet
  facet normal 0 0 1
    outer loop
      vertex 10 0 20
      vertex 0 40 20
      vertex 0 0 20
    endloop
  endfacet
  facet normal -0 0 1
    outer loop
      vertex 30 40 20
      vertex 40 0 20
      vertex 40 40 20
    endloop
  endfacet
  facet normal 0 0 1
    outer loop
      vertex 40 0 20
      vertex 30 40 20
      vertex 30 0 20
    endloop
  endfacet
  facet normal 1 -0 0
    outer loop
      vertex 40 0 20
      vertex 40 40 0
      vertex 40 40 20
    endloop
  endfacet
  facet normal 1 0 0
    outer loop
      vertex 40 40 0
      vertex 40 0 20
      vertex 40 0 0
    endloop
  endfacet
  facet normal 0 1 -0
    outer loop
      vertex 40 40 0
      vertex 30 40 20
      vertex 40 40 20
    endloop
  endfacet
  facet normal 0 1 0
    outer loop
      vertex 30 40 20
      vertex 40 40 0
      vertex 10 40 20
    endloop
  endfacet
  facet normal 0 1 0
    outer loop
      vertex 0 40 0
      vertex 10 40 20
      vertex 40 40 0
    endloop
  endfacet
  facet normal 0 1 0
    outer loop
      vertex 10 40 20
      vertex 0 40 0
      vertex 0 40 20
    endloop
  endfacet
  facet normal 0 1 -0
    outer loop
      vertex 30 40 20
      vertex 10 40 40
      vertex 30 40 40
    endloop
  endfacet
  facet normal 0 1 0
    outer loop
      vertex 10 40 40
      vertex 30 40 20
      vertex 10 40 20
    endloop
  endfacet
  facet normal 0 0 -1
    outer loop
      vertex 0 0 0
      vertex 40 40 0
      vertex 40 0 0
    endloop
  endfacet
  facet normal -0 0 -1
    outer loop
      vertex 40 40 0
      vertex 0 0 0
      vertex 0 40 0
    endloop
  endfacet
  facet normal 0 -1 0
    outer loop
      vertex 0 0 0
      vertex 10 0 20
      vertex 0 0 20
    endloop
  endfacet
  facet normal 0 -1 -0
    outer loop
      vertex 10 0 20
      vertex 0 0 0
      vertex 30 0 20
    endloop
  endfacet
  facet normal 0 -1 0
    outer loop
      vertex 40 0 0
      vertex 30 0 20
      vertex 0 0 0
    endloop
  endfacet
  facet normal 0 -1 0
    outer loop
      vertex 30 0 20
      vertex 40 0 0
      vertex 40 0 20
    endloop
  endfacet
  facet normal 0 -1 0
    outer loop
      vertex 10 0 20
      vertex 30 0 40
      vertex 10 0 40
    endloop
  endfacet
  facet normal 0 -1 -0
    outer loop
      vertex 30 0 40
      vertex 10 0 20
      vertex 30 0 20
    endloop
  endfacet
  facet normal -1 0 0
    outer loop
      vertex 10 0 20
      vertex 10 40 40
      vertex 10 40 20
    endloop
  endfacet
  facet normal -1 -0 0
    outer loop
      vertex 10 40 40
      vertex 10 0 20
      vertex 10 0 40
    endloop
  endfacet
  facet normal -0 0 1
    outer loop
      vertex 10 40 40
      vertex 30 0 40
      vertex 30 40 40
    endloop
  endfacet
  facet normal 0 0 1
    outer loop
      vertex 30 0 40
      vertex 10 40 40
      vertex 10 0 40
    endloop
  endfacet
  facet normal 1 -0 0
    outer loop
      vertex 30 0 40
      vertex 30 40 20
      vertex 30 40 40
    endloop
  endfacet
  facet normal 1 0 0
    outer loop
      vertex 30 40 20
      vertex 30 0 40
      vertex 30 0 20
    endloop
  endfacet
endsolid OpenSCAD_Model
