solid OpenSCAD_Model
  facet normal -1 0 0
    outer loop
      vertex 10 0 20
      vertex 10 10 30
      vertex 10 10 20
    endloop
  endfacet
  facet normal -1 -0 0
    outer loop
      vertex 10 10 30
      vertex 10 0 20
      vertex 10 0 30
    endloop
  endfacet
  facet normal -1 0 0
    outer loop
      vertex 10 20 0
      vertex 10 30 10
      vertex 10 30 0
    endloop
  endfacet
  facet normal -1 -0 0
    outer loop
      vertex 10 30 10
      vertex 10 20 0
      vertex 10 20 10
    endloop
  endfacet
  facet normal -1 0 0
    outer loop
      vertex 10 0 0
      vertex 10 10 10
      vertex 10 10 0
    endloop
  endfacet
  facet normal -1 -0 0
    outer loop
      vertex 10 10 10
      vertex 10 0 0
      vertex 10 0 10
    endloop
  endfacet
  facet normal -1 0 0
    outer loop
      vertex 10 20 20
      vertex 10 30 30
      vertex 10 30 20
    endloop
  endfacet
  facet normal -1 -0 0
    outer loop
      vertex 10 30 30
      vertex 10 20 20
      vertex 10 20 30
    endloop
  endfacet
  facet normal -0 0 1
    outer loop
      vertex 0 20 30
      vertex 10 10 30
      vertex 10 20 30
    endloop
  endfacet
  facet normal 0 0 1
    outer loop
      vertex 10 10 30
      vertex 0 20 30
      vertex 0 10 30
    endloop
  endfacet
  facet normal 0 0 1
    outer loop
      vertex 10 20 30
      vertex 20 20 30
      vertex 20 30 30
    endloop
  endfacet
  facet normal 0 0 1
    outer loop
      vertex 20 20 30
      vertex 10 20 30
      vertex 20 10 30
    endloop
  endfacet
  facet normal 0 0 1
    outer loop
      vertex 10 20 30
      vertex 20 30 30
      vertex 10 30 30
    endloop
  endfacet
  facet normal 0 0 1
    outer loop
      vertex 10 10 30
      vertex 20 10 30
      vertex 10 20 30
    endloop
  endfacet
  facet normal 0 0 1
    outer loop
      vertex 20 10 30
      vertex 10 10 30
      vertex 20 0 30
    endloop
  endfacet
  facet normal 0 0 1
    outer loop
      vertex 20 0 30
      vertex 10 10 30
      vertex 10 0 30
    endloop
  endfacet
  facet normal -0 0 1
    outer loop
      vertex 20 20 30
      vertex 30 10 30
      vertex 30 20 30
    endloop
  endfacet
  facet normal 0 0 1
    outer loop
      vertex 30 10 30
      vertex 20 20 30
      vertex 20 10 30
    endloop
  endfacet
  facet normal 1 -0 0
    outer loop
      vertex 20 0 30
      vertex 20 10 20
      vertex 20 10 30
    endloop
  endfacet
  facet normal 1 0 0
    outer loop
      vertex 20 10 20
      vertex 20 0 30
      vertex 20 0 20
    endloop
  endfacet
  facet normal 1 -0 0
    outer loop
      vertex 20 20 30
      vertex 20 30 20
      vertex 20 30 30
    endloop
  endfacet
  facet normal 1 0 0
    outer loop
      vertex 20 30 20
      vertex 20 20 30
      vertex 20 20 20
    endloop
  endfacet
  facet normal 1 -0 0
    outer loop
      vertex 20 0 10
      vertex 20 10 0
      vertex 20 10 10
    endloop
  endfacet
  facet normal 1 0 0
    outer loop
      vertex 20 10 0
      vertex 20 0 10
      vertex 20 0 0
    endloop
  endfacet
  facet normal 1 -0 0
    outer loop
      vertex 20 20 10
      vertex 20 30 0
      vertex 20 30 10
    endloop
  endfacet
  facet normal 1 0 0
    outer loop
      vertex 20 30 0
      vertex 20 20 10
      vertex 20 20 0
    endloop
  endfacet
  facet normal 0 0 -1
    outer loop
      vertex 0 10 0
      vertex 10 20 0
      vertex 10 10 0
    endloop
  endfacet
  facet normal -0 0 -1
    outer loop
      vertex 10 20 0
      vertex 0 10 0
      vertex 0 20 0
    endloop
  endfacet
  facet normal 0 0 -1
    outer loop
      vertex 10 10 0
      vertex 20 10 0
      vertex 20 0 0
    endloop
  endfacet
  facet normal 0 0 -1
    outer loop
      vertex 20 10 0
      vertex 10 10 0
      vertex 20 20 0
    endloop
  endfacet
  facet normal 0 0 -1
    outer loop
      vertex 10 10 0
      vertex 20 0 0
      vertex 10 0 0
    endloop
  endfacet
  facet normal 0 0 -1
    outer loop
      vertex 10 20 0
      vertex 20 20 0
      vertex 10 10 0
    endloop
  endfacet
  facet normal 0 0 -1
    outer loop
      vertex 20 20 0
      vertex 10 20 0
      vertex 20 30 0
    endloop
  endfacet
  facet normal -0 0 -1
    outer loop
      vertex 20 30 0
      vertex 10 20 0
      vertex 10 30 0
    endloop
  endfacet
  facet normal 0 0 -1
    outer loop
      vertex 20 10 0
      vertex 30 20 0
      vertex 30 10 0
    endloop
  endfacet
  facet normal -0 0 -1
    outer loop
      vertex 30 20 0
      vertex 20 10 0
      vertex 20 20 0
    endloop
  endfacet
  facet normal 0 -1 0
    outer loop
      vertex 10 0 0
      vertex 20 0 10
      vertex 10 0 10
    endloop
  endfacet
  facet normal 0 -1 -0
    outer loop
      vertex 20 0 10
      vertex 10 0 0
      vertex 20 0 0
    endloop
  endfacet
  facet normal 0 -1 0
    outer loop
      vertex 10 0 10
      vertex 10 0 20
      vertex 0 0 20
    endloop
  endfacet
  facet normal 0 -1 0
    outer loop
      vertex 10 0 20
      vertex 10 0 10
      vertex 20 0 20
    endloop
  endfacet
  facet normal 0 -1 0
    outer loop
      vertex 10 0 10
      vertex 0 0 20
      vertex 0 0 10
    endloop
  endfacet
  facet normal 0 -1 0
    outer loop
      vertex 20 0 10
      vertex 20 0 20
      vertex 10 0 10
    endloop
  endfacet
  facet normal 0 -1 0
    outer loop
      vertex 20 0 20
      vertex 20 0 10
      vertex 30 0 20
    endloop
  endfacet
  facet normal 0 -1 -0
    outer loop
      vertex 30 0 20
      vertex 20 0 10
      vertex 30 0 10
    endloop
  endfacet
  facet normal 0 -1 0
    outer loop
      vertex 10 0 20
      vertex 20 0 30
      vertex 10 0 30
    endloop
  endfacet
  facet normal 0 -1 -0
    outer loop
      vertex 20 0 30
      vertex 10 0 20
      vertex 20 0 20
    endloop
  endfacet
  facet normal 0 1 -0
    outer loop
      vertex 20 30 0
      vertex 10 30 10
      vertex 20 30 10
    endloop
  endfacet
  facet normal 0 1 0
    outer loop
      vertex 10 30 10
      vertex 20 30 0
      vertex 10 30 0
    endloop
  endfacet
  facet normal 0 1 0
    outer loop
      vertex 20 30 10
      vertex 20 30 20
      vertex 30 30 20
    endloop
  endfacet
  facet normal 0 1 0
    outer loop
      vertex 20 30 20
      vertex 20 30 10
      vertex 10 30 20
    endloop
  endfacet
  facet normal 0 1 0
    outer loop
      vertex 20 30 10
      vertex 30 30 20
      vertex 30 30 10
    endloop
  endfacet
  facet normal 0 1 0
    outer loop
      vertex 10 30 10
      vertex 10 30 20
      vertex 20 30 10
    endloop
  endfacet
  facet normal 0 1 0
    outer loop
      vertex 10 30 20
      vertex 10 30 10
      vertex 0 30 20
    endloop
  endfacet
  facet normal 0 1 0
    outer loop
      vertex 0 30 20
      vertex 10 30 10
      vertex 0 30 10
    endloop
  endfacet
  facet normal 0 1 -0
    outer loop
      vertex 20 30 20
      vertex 10 30 30
      vertex 20 30 30
    endloop
  endfacet
  facet normal 0 1 0
    outer loop
      vertex 10 30 30
      vertex 20 30 20
      vertex 10 30 20
    endloop
  endfacet
  facet normal -1 0 0
    outer loop
      vertex 0 0 10
      vertex 0 10 20
      vertex 0 10 10
    endloop
  endfacet
  facet normal -1 -0 0
    outer loop
      vertex 0 10 20
      vertex 0 0 10
      vertex 0 0 20
    endloop
  endfacet
  facet normal -1 0 0
    outer loop
      vertex 0 10 10
      vertex 0 20 10
      vertex 0 20 0
    endloop
  endfacet
  facet normal -1 0 0
    outer loop
      vertex 0 20 10
      vertex 0 10 10
      vertex 0 20 20
    endloop
  endfacet
  facet normal -1 0 0
    outer loop
      vertex 0 10 10
      vertex 0 20 0
      vertex 0 10 0
    endloop
  endfacet
  facet normal -1 0 0
    outer loop
      vertex 0 10 20
      vertex 0 20 20
      vertex 0 10 10
    endloop
  endfacet
  facet normal -1 0 0
    outer loop
      vertex 0 20 20
      vertex 0 10 20
      vertex 0 20 30
    endloop
  endfacet
  facet normal -1 -0 0
    outer loop
      vertex 0 20 30
      vertex 0 10 20
      vertex 0 10 30
    endloop
  endfacet
  facet normal -1 0 0
    outer loop
      vertex 0 20 10
      vertex 0 30 20
      vertex 0 30 10
    endloop
  endfacet
  facet normal -1 -0 0
    outer loop
      vertex 0 30 20
      vertex 0 20 10
      vertex 0 20 20
    endloop
  endfacet
  facet normal 1 -0 0
    outer loop
      vertex 30 0 20
      vertex 30 10 10
      vertex 30 10 20
    endloop
  endfacet
  facet normal 1 0 0
    outer loop
      vertex 30 10 10
      vertex 30 0 20
      vertex 30 0 10
    endloop
  endfacet
  facet normal 1 0 0
    outer loop
      vertex 30 10 20
      vertex 30 20 20
      vertex 30 20 30
    endloop
  endfacet
  facet normal 1 0 0
    outer loop
      vertex 30 20 20
      vertex 30 10 20
      vertex 30 20 10
    endloop
  endfacet
  facet normal 1 0 0
    outer loop
      vertex 30 10 20
      vertex 30 20 30
      vertex 30 10 30
    endloop
  endfacet
  facet normal 1 0 0
    outer loop
      vertex 30 10 10
      vertex 30 20 10
      vertex 30 10 20
    endloop
  endfacet
  facet normal 1 0 0
    outer loop
      vertex 30 20 10
      vertex 30 10 10
      vertex 30 20 0
    endloop
  endfacet
  facet normal 1 0 0
    outer loop
      vertex 30 20 0
      vertex 30 10 10
      vertex 30 10 0
    endloop
  endfacet
  facet normal 1 -0 0
    outer loop
      vertex 30 20 20
      vertex 30 30 10
      vertex 30 30 20
    endloop
  endfacet
  facet normal 1 0 0
    outer loop
      vertex 30 30 10
      vertex 30 20 20
      vertex 30 20 10
    endloop
  endfacet
  facet normal 0 -1 0
    outer loop
      vertex 0 10 20
      vertex 10 10 30
      vertex 0 10 30
    endloop
  endfacet
  facet normal 0 -1 -0
    outer loop
      vertex 10 10 30
      vertex 0 10 20
      vertex 10 10 20
    endloop
  endfacet
  facet normal 0 -1 0
    outer loop
      vertex 20 10 20
      vertex 30 10 30
      vertex 20 10 30
    endloop
  endfacet
  facet normal 0 -1 -0
    outer loop
      vertex 30 10 30
      vertex 20 10 20
      vertex 30 10 20
    endloop
  endfacet
  facet normal 0 -1 0
    outer loop
      vertex 0 10 0
      vertex 10 10 10
      vertex 0 10 10
    endloop
  endfacet
  facet normal 0 -1 -0
    outer loop
      vertex 10 10 10
      vertex 0 10 0
      vertex 10 10 0
    endloop
  endfacet
  facet normal 0 -1 0
    outer loop
      vertex 20 10 0
      vertex 30 10 10
      vertex 20 10 10
    endloop
  endfacet
  facet normal 0 -1 -0
    outer loop
      vertex 30 10 10
      vertex 20 10 0
      vertex 30 10 0
    endloop
  endfacet
  facet normal 0 1 -0
    outer loop
      vertex 30 20 20
      vertex 20 20 30
      vertex 30 20 30
    endloop
  endfacet
  facet normal 0 1 0
    outer loop
      vertex 20 20 30
      vertex 30 20 20
      vertex 20 20 20
    endloop
  endfacet
  facet normal 0 1 -0
    outer loop
      vertex 10 20 0
      vertex 0 20 10
      vertex 10 20 10
    endloop
  endfacet
  facet normal 0 1 0
    outer loop
      vertex 0 20 10
      vertex 10 20 0
      vertex 0 20 0
    endloop
  endfacet
  facet normal 0 1 -0
    outer loop
      vertex 30 20 0
      vertex 20 20 10
      vertex 30 20 10
    endloop
  endfacet
  facet normal 0 1 0
    outer loop
      vertex 20 20 10
      vertex 30 20 0
      vertex 20 20 0
    endloop
  endfacet
  facet normal 0 1 -0
    outer loop
      vertex 10 20 20
      vertex 0 20 30
      vertex 10 20 30
    endloop
  endfacet
  facet normal 0 1 0
    outer loop
      vertex 0 20 30
      vertex 10 20 20
      vertex 0 20 20
    endloop
  endfacet
  facet normal -0 0 1
    outer loop
      vertex 0 10 20
      vertex 10 0 20
      vertex 10 10 20
    endloop
  endfacet
  facet normal 0 0 1
    outer loop
      vertex 10 0 20
      vertex 0 10 20
      vertex 0 0 20
    endloop
  endfacet
  facet normal -0 0 1
    outer loop
      vertex 20 10 20
      vertex 30 0 20
      vertex 30 10 20
    endloop
  endfacet
  facet normal 0 0 1
    outer loop
      vertex 30 0 20
      vertex 20 10 20
      vertex 20 0 20
    endloop
  endfacet
  facet normal -0 0 1
    outer loop
      vertex 20 30 20
      vertex 30 20 20
      vertex 30 30 20
    endloop
  endfacet
  facet normal 0 0 1
    outer loop
      vertex 30 20 20
      vertex 20 30 20
      vertex 20 20 20
    endloop
  endfacet
  facet normal -0 0 1
    outer loop
      vertex 0 30 20
      vertex 10 20 20
      vertex 10 30 20
    endloop
  endfacet
  facet normal 0 0 1
    outer loop
      vertex 10 20 20
      vertex 0 30 20
      vertex 0 20 20
    endloop
  endfacet
  facet normal 0 0 -1
    outer loop
      vertex 0 20 10
      vertex 10 30 10
      vertex 10 20 10
    endloop
  endfacet
  facet normal -0 0 -1
    outer loop
      vertex 10 30 10
      vertex 0 20 10
      vertex 0 30 10
    endloop
  endfacet
  facet normal 0 0 -1
    outer loop
      vertex 0 0 10
      vertex 10 10 10
      vertex 10 0 10
    endloop
  endfacet
  facet normal -0 0 -1
    outer loop
      vertex 10 10 10
      vertex 0 0 10
      vertex 0 10 10
    endloop
  endfacet
  facet normal 0 0 -1
    outer loop
      vertex 20 0 10
      vertex 30 10 10
      vertex 30 0 10
    endloop
  endfacet
  facet normal -0 0 -1
    outer loop
      vertex 30 10 10
      vertex 20 0 10
      vertex 20 10 10
    endloop
  endfacet
  facet normal 0 0 -1
    outer loop
      vertex 20 20 10
      vertex 30 30 10
      vertex 30 20 10
    endloop
  endfacet
  facet normal -0 0 -1
    outer loop
      vertex 30 30 10
      vertex 20 20 10
      vertex 20 30 10
    endloop
  endfacet
endsolid OpenSCAD_Model
