solid OpenSCAD_Model
  facet normal -1 0 0
    outer loop
      vertex 0 0 0
      vertex 0 40 10
      vertex 0 40 0
    endloop
  endfacet
  facet normal -1 -0 0
    outer loop
      vertex 0 40 10
      vertex 0 0 0
      vertex 0 0 10
    endloop
  endfacet
  facet normal 0 0 1
    outer loop
      vertex 15 40 10
      vertex 0 40 10
      vertex 15 10 10
    endloop
  endfacet
  facet normal 0 0 1
    outer loop
      vertex 25 10 10
      vertex 40 40 10
      vertex 25 40 10
    endloop
  endfacet
  facet normal 0 0 1
    outer loop
      vertex 40 40 10
      vertex 25 10 10
      vertex 40 0 10
    endloop
  endfacet
  facet normal -0 0 1
    outer loop
      vertex 15 10 10
      vertex 40 0 10
      vertex 25 10 10
    endloop
  endfacet
  facet normal 0 0 1
    outer loop
      vertex 15 10 10
      vertex 0 0 10
      vertex 40 0 10
    endloop
  endfacet
  facet normal 0 0 1
    outer loop
      vertex 0 0 10
      vertex 15 10 10
      vertex 0 40 10
    endloop
  endfacet
  facet normal 1 -0 0
    outer loop
      vertex 40 0 10
      vertex 40 40 0
      vertex 40 40 10
    endloop
  endfacet
  facet normal 1 0 0
    outer loop
      vertex 40 40 0
      vertex 40 0 10
      vertex 40 0 0
    endloop
  endfacet
  facet normal 0 1 -0
    outer loop
      vertex 40 40 0
      vertex 25 40 10
      vertex 40 40 10
    endloop
  endfacet
  facet normal 0 1 0
    outer loop
      vertex 25 40 10
      vertex 40 40 0
      vertex 15 40 10
    endloop
  endfacet
  facet normal 0 1 0
    outer loop
      vertex 0 40 0
      vertex 15 40 10
      vertex 40 40 0
    endloop
  endfacet
  facet normal 0 1 0
    outer loop
      vertex 15 40 10
      vertex 0 40 0
      vertex 0 40 10
    endloop
  endfacet
  facet normal 0 1 -0
    outer loop
      vertex 25 40 10
      vertex 15 40 40
      vertex 25 40 40
    endloop
  endfacet
  facet normal 0 1 0
    outer loop
      vertex 15 40 40
      vertex 25 40 10
      vertex 15 40 10
    endloop
  endfacet
  facet normal 0 0 -1
    outer loop
      vertex 0 0 0
      vertex 40 40 0
      vertex 40 0 0
    endloop
  endfacet
  facet normal -0 0 -1
    outer loop
      vertex 40 40 0
      vertex 0 0 0
      vertex 0 40 0
    endloop
  endfacet
  facet normal 0 -1 0
    outer loop
      vertex 0 0 0
      vertex 40 0 10
      vertex 0 0 10
    endloop
  endfacet
  facet normal 0 -1 -0
    outer loop
      vertex 40 0 10
      vertex 0 0 0
      vertex 40 0 0
    endloop
  endfacet
  facet normal -1 0 0
    outer loop
      vertex 15 10 10
      vertex 15 40 40
      vertex 15 40 10
    endloop
  endfacet
  facet normal -1 -0 0
    outer loop
      vertex 15 40 40
      vertex 15 10 10
      vertex 15 10 40
    endloop
  endfacet
  facet normal -0 0 1
    outer loop
      vertex 15 40 40
      vertex 25 10 40
      vertex 25 40 40
    endloop
  endfacet
  facet normal 0 0 1
    outer loop
      vertex 25 10 40
      vertex 15 40 40
      vertex 15 10 40
    endloop
  endfacet
  facet normal 1 -0 0
    outer loop
      vertex 25 10 40
      vertex 25 40 10
      vertex 25 40 40
    endloop
  endfacet
  facet normal 1 0 0
    outer loop
      vertex 25 40 10
      vertex 25 10 40
      vertex 25 10 10
    endloop
  endfacet
  facet normal 0 -1 0
    outer loop
      vertex 15 10 10
      vertex 25 10 40
      vertex 15 10 40
    endloop
  endfacet
  facet normal 0 -1 -0
    outer loop
      vertex 25 10 40
      vertex 15 10 10
      vertex 25 10 10
    endloop
  endfacet
endsolid OpenSCAD_Model
