solid OpenSCAD_Model
  facet normal -1 0 0
    outer loop
      vertex 15 0 25
      vertex 15 15 40
      vertex 15 15 25
    endloop
  endfacet
  facet normal -1 -0 0
    outer loop
      vertex 15 15 40
      vertex 15 0 25
      vertex 15 0 40
    endloop
  endfacet
  facet normal -1 0 0
    outer loop
      vertex 15 25 0
      vertex 15 40 15
      vertex 15 40 0
    endloop
  endfacet
  facet normal -1 -0 0
    outer loop
      vertex 15 40 15
      vertex 15 25 0
      vertex 15 25 15
    endloop
  endfacet
  facet normal -1 0 0
    outer loop
      vertex 15 0 0
      vertex 15 15 15
      vertex 15 15 0
    endloop
  endfacet
  facet normal -1 -0 0
    outer loop
      vertex 15 15 15
      vertex 15 0 0
      vertex 15 0 15
    endloop
  endfacet
  facet normal -1 0 0
    outer loop
      vertex 15 25 25
      vertex 15 40 40
      vertex 15 40 25
    endloop
  endfacet
  facet normal -1 -0 0
    outer loop
      vertex 15 40 40
      vertex 15 25 25
      vertex 15 25 40
    endloop
  endfacet
  facet normal -0 0 1
    outer loop
      vertex 0 25 40
      vertex 15 15 40
      vertex 15 25 40
    endloop
  endfacet
  facet normal 0 0 1
    outer loop
      vertex 15 15 40
      vertex 0 25 40
      vertex 0 15 40
    endloop
  endfacet
  facet normal 0 0 1
    outer loop
      vertex 15 25 40
      vertex 25 25 40
      vertex 25 40 40
    endloop
  endfacet
  facet normal 0 0 1
    outer loop
      vertex 25 25 40
      vertex 15 25 40
      vertex 25 15 40
    endloop
  endfacet
  facet normal 0 0 1
    outer loop
      vertex 15 25 40
      vertex 25 40 40
      vertex 15 40 40
    endloop
  endfacet
  facet normal 0 0 1
    outer loop
      vertex 15 15 40
      vertex 25 15 40
      vertex 15 25 40
    endloop
  endfacet
  facet normal 0 0 1
    outer loop
      vertex 25 15 40
      vertex 15 15 40
      vertex 25 0 40
    endloop
  endfacet
  facet normal 0 0 1
    outer loop
      vertex 25 0 40
      vertex 15 15 40
      vertex 15 0 40
    endloop
  endfacet
  facet normal -0 0 1
    outer loop
      vertex 25 25 40
      vertex 40 15 40
      vertex 40 25 40
    endloop
  endfacet
  facet normal 0 0 1
    outer loop
      vertex 40 15 40
      vertex 25 25 40
      vertex 25 15 40
    endloop
  endfacet
  facet normal 1 -0 0
    outer loop
      vertex 25 0 40
      vertex 25 15 25
      vertex 25 15 40
    endloop
  endfacet
  facet normal 1 0 0
    outer loop
      vertex 25 15 25
      vertex 25 0 40
      vertex 25 0 25
    endloop
  endfacet
  facet normal 1 -0 0
    outer loop
      vertex 25 25 40
      vertex 25 40 25
      vertex 25 40 40
    endloop
  endfacet
  facet normal 1 0 0
    outer loop
      vertex 25 40 25
      vertex 25 25 40
      vertex 25 25 25
    endloop
  endfacet
  facet normal 1 -0 0
    outer loop
      vertex 25 0 15
      vertex 25 15 0
      vertex 25 15 15
    endloop
  endfacet
  facet normal 1 0 0
    outer loop
      vertex 25 15 0
      vertex 25 0 15
      vertex 25 0 0
    endloop
  endfacet
  facet normal 1 -0 0
    outer loop
      vertex 25 25 15
      vertex 25 40 0
      vertex 25 40 15
    endloop
  endfacet
  facet normal 1 0 0
    outer loop
      vertex 25 40 0
      vertex 25 25 15
      vertex 25 25 0
    endloop
  endfacet
  facet normal 0 1 -0
    outer loop
      vertex 25 40 0
      vertex 15 40 15
      vertex 25 40 15
    endloop
  endfacet
  facet normal 0 1 0
    outer loop
      vertex 15 40 15
      vertex 25 40 0
      vertex 15 40 0
    endloop
  endfacet
  facet normal 0 1 0
    outer loop
      vertex 25 40 15
      vertex 25 40 25
      vertex 40 40 25
    endloop
  endfacet
  facet normal 0 1 0
    outer loop
      vertex 25 40 25
      vertex 25 40 15
      vertex 15 40 25
    endloop
  endfacet
  facet normal 0 1 0
    outer loop
      vertex 25 40 15
      vertex 40 40 25
      vertex 40 40 15
    endloop
  endfacet
  facet normal 0 1 0
    outer loop
      vertex 15 40 15
      vertex 15 40 25
      vertex 25 40 15
    endloop
  endfacet
  facet normal 0 1 0
    outer loop
      vertex 15 40 25
      vertex 15 40 15
      vertex 0 40 25
    endloop
  endfacet
  facet normal 0 1 0
    outer loop
      vertex 0 40 25
      vertex 15 40 15
      vertex 0 40 15
    endloop
  endfacet
  facet normal 0 1 -0
    outer loop
      vertex 25 40 25
      vertex 15 40 40
      vertex 25 40 40
    endloop
  endfacet
  facet normal 0 1 0
    outer loop
      vertex 15 40 40
      vertex 25 40 25
      vertex 15 40 25
    endloop
  endfacet
  facet normal 0 0 -1
    outer loop
      vertex 0 15 0
      vertex 15 25 0
      vertex 15 15 0
    endloop
  endfacet
  facet normal -0 0 -1
    outer loop
      vertex 15 25 0
      vertex 0 15 0
      vertex 0 25 0
    endloop
  endfacet
  facet normal 0 0 -1
    outer loop
      vertex 15 15 0
      vertex 25 15 0
      vertex 25 0 0
    endloop
  endfacet
  facet normal 0 0 -1
    outer loop
      vertex 25 15 0
      vertex 15 15 0
      vertex 25 25 0
    endloop
  endfacet
  facet normal 0 0 -1
    outer loop
      vertex 15 15 0
      vertex 25 0 0
      vertex 15 0 0
    endloop
  endfacet
  facet normal 0 0 -1
    outer loop
      vertex 15 25 0
      vertex 25 25 0
      vertex 15 15 0
    endloop
  endfacet
  facet normal 0 0 -1
    outer loop
      vertex 25 25 0
      vertex 15 25 0
      vertex 25 40 0
    endloop
  endfacet
  facet normal -0 0 -1
    outer loop
      vertex 25 40 0
      vertex 15 25 0
      vertex 15 40 0
    endloop
  endfacet
  facet normal 0 0 -1
    outer loop
      vertex 25 15 0
      vertex 40 25 0
      vertex 40 15 0
    endloop
  endfacet
  facet normal -0 0 -1
    outer loop
      vertex 40 25 0
      vertex 25 15 0
      vertex 25 25 0
    endloop
  endfacet
  facet normal 0 -1 0
    outer loop
      vertex 15 0 0
      vertex 25 0 15
      vertex 15 0 15
    endloop
  endfacet
  facet normal 0 -1 -0
    outer loop
      vertex 25 0 15
      vertex 15 0 0
      vertex 25 0 0
    endloop
  endfacet
  facet normal 0 -1 0
    outer loop
      vertex 15 0 15
      vertex 15 0 25
      vertex 0 0 25
    endloop
  endfacet
  facet normal 0 -1 0
    outer loop
      vertex 15 0 25
      vertex 15 0 15
      vertex 25 0 25
    endloop
  endfacet
  facet normal 0 -1 0
    outer loop
      vertex 15 0 15
      vertex 0 0 25
      vertex 0 0 15
    endloop
  endfacet
  facet normal 0 -1 0
    outer loop
      vertex 25 0 15
      vertex 25 0 25
      vertex 15 0 15
    endloop
  endfacet
  facet normal 0 -1 0
    outer loop
      vertex 25 0 25
      vertex 25 0 15
      vertex 40 0 25
    endloop
  endfacet
  facet normal 0 -1 -0
    outer loop
      vertex 40 0 25
      vertex 25 0 15
      vertex 40 0 15
    endloop
  endfacet
  facet normal 0 -1 0
    outer loop
      vertex 15 0 25
      vertex 25 0 40
      vertex 15 0 40
    endloop
  endfacet
  facet normal 0 -1 -0
    outer loop
      vertex 25 0 40
      vertex 15 0 25
      vertex 25 0 25
    endloop
  endfacet
  facet normal -1 0 0
    outer loop
      vertex 0 0 15
      vertex 0 15 25
      vertex 0 15 15
    endloop
  endfacet
  facet normal -1 -0 0
    outer loop
      vertex 0 15 25
      vertex 0 0 15
      vertex 0 0 25
    endloop
  endfacet
  facet normal -1 0 0
    outer loop
      vertex 0 15 15
      vertex 0 25 15
      vertex 0 25 0
    endloop
  endfacet
  facet normal -1 0 0
    outer loop
      vertex 0 25 15
      vertex 0 15 15
      vertex 0 25 25
    endloop
  endfacet
  facet normal -1 0 0
    outer loop
      vertex 0 15 15
      vertex 0 25 0
      vertex 0 15 0
    endloop
  endfacet
  facet normal -1 0 0
    outer loop
      vertex 0 15 25
      vertex 0 25 25
      vertex 0 15 15
    endloop
  endfacet
  facet normal -1 0 0
    outer loop
      vertex 0 25 25
      vertex 0 15 25
      vertex 0 25 40
    endloop
  endfacet
  facet normal -1 -0 0
    outer loop
      vertex 0 25 40
      vertex 0 15 25
      vertex 0 15 40
    endloop
  endfacet
  facet normal -1 0 0
    outer loop
      vertex 0 25 15
      vertex 0 40 25
      vertex 0 40 15
    endloop
  endfacet
  facet normal -1 -0 0
    outer loop
      vertex 0 40 25
      vertex 0 25 15
      vertex 0 25 25
    endloop
  endfacet
  facet normal 1 -0 0
    outer loop
      vertex 40 0 25
      vertex 40 15 15
      vertex 40 15 25
    endloop
  endfacet
  facet normal 1 0 0
    outer loop
      vertex 40 15 15
      vertex 40 0 25
      vertex 40 0 15
    endloop
  endfacet
  facet normal 1 0 0
    outer loop
      vertex 40 15 25
      vertex 40 25 25
      vertex 40 25 40
    endloop
  endfacet
  facet normal 1 0 0
    outer loop
      vertex 40 25 25
      vertex 40 15 25
      vertex 40 25 15
    endloop
  endfacet
  facet normal 1 0 0
    outer loop
      vertex 40 15 25
      vertex 40 25 40
      vertex 40 15 40
    endloop
  endfacet
  facet normal 1 0 0
    outer loop
      vertex 40 15 15
      vertex 40 25 15
      vertex 40 15 25
    endloop
  endfacet
  facet normal 1 0 0
    outer loop
      vertex 40 25 15
      vertex 40 15 15
      vertex 40 25 0
    endloop
  endfacet
  facet normal 1 0 0
    outer loop
      vertex 40 25 0
      vertex 40 15 15
      vertex 40 15 0
    endloop
  endfacet
  facet normal 1 -0 0
    outer loop
      vertex 40 25 25
      vertex 40 40 15
      vertex 40 40 25
    endloop
  endfacet
  facet normal 1 0 0
    outer loop
      vertex 40 40 15
      vertex 40 25 25
      vertex 40 25 15
    endloop
  endfacet
  facet normal 0 -1 0
    outer loop
      vertex 0 15 25
      vertex 15 15 40
      vertex 0 15 40
    endloop
  endfacet
  facet normal 0 -1 -0
    outer loop
      vertex 15 15 40
      vertex 0 15 25
      vertex 15 15 25
    endloop
  endfacet
  facet normal 0 -1 0
    outer loop
      vertex 25 15 25
      vertex 40 15 40
      vertex 25 15 40
    endloop
  endfacet
  facet normal 0 -1 -0
    outer loop
      vertex 40 15 40
      vertex 25 15 25
      vertex 40 15 25
    endloop
  endfacet
  facet normal 0 -1 0
    outer loop
      vertex 0 15 0
      vertex 15 15 15
      vertex 0 15 15
    endloop
  endfacet
  facet normal 0 -1 -0
    outer loop
      vertex 15 15 15
      vertex 0 15 0
      vertex 15 15 0
    endloop
  endfacet
  facet normal 0 -1 0
    outer loop
      vertex 25 15 0
      vertex 40 15 15
      vertex 25 15 15
    endloop
  endfacet
  facet normal 0 -1 -0
    outer loop
      vertex 40 15 15
      vertex 25 15 0
      vertex 40 15 0
    endloop
  endfacet
  facet normal 0 1 -0
    outer loop
      vertex 40 25 25
      vertex 25 25 40
      vertex 40 25 40
    endloop
  endfacet
  facet normal 0 1 0
    outer loop
      vertex 25 25 40
      vertex 40 25 25
      vertex 25 25 25
    endloop
  endfacet
  facet normal 0 1 -0
    outer loop
      vertex 15 25 0
      vertex 0 25 15
      vertex 15 25 15
    endloop
  endfacet
  facet normal 0 1 0
    outer loop
      vertex 0 25 15
      vertex 15 25 0
      vertex 0 25 0
    endloop
  endfacet
  facet normal 0 1 -0
    outer loop
      vertex 40 25 0
      vertex 25 25 15
      vertex 40 25 15
    endloop
  endfacet
  facet normal 0 1 0
    outer loop
      vertex 25 25 15
      vertex 40 25 0
      vertex 25 25 0
    endloop
  endfacet
  facet normal 0 1 -0
    outer loop
      vertex 15 25 25
      vertex 0 25 40
      vertex 15 25 40
    endloop
  endfacet
  facet normal 0 1 0
    outer loop
      vertex 0 25 40
      vertex 15 25 25
      vertex 0 25 25
    endloop
  endfacet
  facet normal -0 0 1
    outer loop
      vertex 0 15 25
      vertex 15 0 25
      vertex 15 15 25
    endloop
  endfacet
  facet normal 0 0 1
    outer loop
      vertex 15 0 25
      vertex 0 15 25
      vertex 0 0 25
    endloop
  endfacet
  facet normal -0 0 1
    outer loop
      vertex 25 15 25
      vertex 40 0 25
      vertex 40 15 25
    endloop
  endfacet
  facet normal 0 0 1
    outer loop
      vertex 40 0 25
      vertex 25 15 25
      vertex 25 0 25
    endloop
  endfacet
  facet normal -0 0 1
    outer loop
      vertex 25 40 25
      vertex 40 25 25
      vertex 40 40 25
    endloop
  endfacet
  facet normal 0 0 1
    outer loop
      vertex 40 25 25
      vertex 25 40 25
      vertex 25 25 25
    endloop
  endfacet
  facet normal -0 0 1
    outer loop
      vertex 0 40 25
      vertex 15 25 25
      vertex 15 40 25
    endloop
  endfacet
  facet normal 0 0 1
    outer loop
      vertex 15 25 25
      vertex 0 40 25
      vertex 0 25 25
    endloop
  endfacet
  facet normal 0 0 -1
    outer loop
      vertex 0 25 15
      vertex 15 40 15
      vertex 15 25 15
    endloop
  endfacet
  facet normal -0 0 -1
    outer loop
      vertex 15 40 15
      vertex 0 25 15
      vertex 0 40 15
    endloop
  endfacet
  facet normal 0 0 -1
    outer loop
      vertex 0 0 15
      vertex 15 15 15
      vertex 15 0 15
    endloop
  endfacet
  facet normal -0 0 -1
    outer loop
      vertex 15 15 15
      vertex 0 0 15
      vertex 0 15 15
    endloop
  endfacet
  facet normal 0 0 -1
    outer loop
      vertex 25 0 15
      vertex 40 15 15
      vertex 40 0 15
    endloop
  endfacet
  facet normal -0 0 -1
    outer loop
      vertex 40 15 15
      vertex 25 0 15
      vertex 25 15 15
    endloop
  endfacet
  facet normal 0 0 -1
    outer loop
      vertex 25 25 15
      vertex 40 40 15
      vertex 40 25 15
    endloop
  endfacet
  facet normal -0 0 -1
    outer loop
      vertex 40 40 15
      vertex 25 25 15
      vertex 25 40 15
    endloop
  endfacet
endsolid OpenSCAD_Model
