solid OpenSCAD_Model
  facet normal -1 0 0
    outer loop
      vertex 15 0.0821714 0
      vertex 15 0 0
      vertex 15 0.0821714 10
    endloop
  endfacet
  facet normal -1 0 0
    outer loop
      vertex 15 30 10
      vertex 15 20 40
      vertex 15 30 40
    endloop
  endfacet
  facet normal -1 0 0
    outer loop
      vertex 15 0 20
      vertex 15 30 10
      vertex 15 0.0821714 10
    endloop
  endfacet
  facet normal -1 0 0
    outer loop
      vertex 15 30 10
      vertex 15 0 20
      vertex 15 20 40
    endloop
  endfacet
  facet normal -1 0 0
    outer loop
      vertex 15 0 20
      vertex 15 0.0821714 10
      vertex 15 0 0
    endloop
  endfacet
  facet normal 0 0 1
    outer loop
      vertex 15 30 40
      vertex 25 40 40
      vertex 15 40 40
    endloop
  endfacet
  facet normal 0 0 1
    outer loop
      vertex 25 40 40
      vertex 15 30 40
      vertex 25 20 40
    endloop
  endfacet
  facet normal 0 0 1
    outer loop
      vertex 25 20 40
      vertex 15 30 40
      vertex 15 20 40
    endloop
  endfacet
  facet normal 1 0 0
    outer loop
      vertex 25 40 40
      vertex 25 30 39.9178
      vertex 25 40 39.9178
    endloop
  endfacet
  facet normal 1 -0 0
    outer loop
      vertex 25 20 40
      vertex 25 30 39.9178
      vertex 25 40 40
    endloop
  endfacet
  facet normal 1 0 0
    outer loop
      vertex 25 20 40
      vertex 25 30 20
      vertex 25 30 39.9178
    endloop
  endfacet
  facet normal 1 0 0
    outer loop
      vertex 25 30 20
      vertex 25 20 40
      vertex 25 0 20
    endloop
  endfacet
  facet normal 0 1 0
    outer loop
      vertex 26.5679 40 39.9178
      vertex 29.6353 40 39.2658
      vertex 25 40 39.9178
    endloop
  endfacet
  facet normal 0 1 -0
    outer loop
      vertex 25 40 39.9178
      vertex 15 40 40
      vertex 25 40 40
    endloop
  endfacet
  facet normal 0 1 0
    outer loop
      vertex 13.7032 40 33.8989
      vertex 25 40 39.9178
      vertex 29.6353 40 39.2658
    endloop
  endfacet
  facet normal 0 1 0
    outer loop
      vertex 13.7032 40 33.8989
      vertex 29.6353 40 39.2658
      vertex 32.5 40 37.9904
    endloop
  endfacet
  facet normal 0 1 0
    outer loop
      vertex 25 40 39.9178
      vertex 14.6722 40 36.8813
      vertex 15 40 40
    endloop
  endfacet
  facet normal 0 1 0
    outer loop
      vertex 13.7032 40 33.8989
      vertex 32.5 40 37.9904
      vertex 35.037 40 36.1472
    endloop
  endfacet
  facet normal 0 1 0
    outer loop
      vertex 25 40 39.9178
      vertex 13.7032 40 33.8989
      vertex 14.6722 40 36.8813
    endloop
  endfacet
  facet normal 0 1 0
    outer loop
      vertex 37.1353 40 33.8168
      vertex 13.7032 40 33.8989
      vertex 35.037 40 36.1472
    endloop
  endfacet
  facet normal 0 1 0
    outer loop
      vertex 37.1353 40 33.8168
      vertex 12.1353 40 31.1832
      vertex 13.7032 40 33.8989
    endloop
  endfacet
  facet normal 0 1 0
    outer loop
      vertex 38.7032 40 31.101
      vertex 12.1353 40 31.1832
      vertex 37.1353 40 33.8168
    endloop
  endfacet
  facet normal 0 1 0
    outer loop
      vertex 39.6722 40 28.1187
      vertex 12.1353 40 31.1832
      vertex 38.7032 40 31.101
    endloop
  endfacet
  facet normal 0 1 0
    outer loop
      vertex 40 40 25
      vertex 12.1353 40 31.1832
      vertex 39.6722 40 28.1187
    endloop
  endfacet
  facet normal 0 1 0
    outer loop
      vertex 12.1353 40 31.1832
      vertex 40 40 25
      vertex 10.037 40 28.8528
    endloop
  endfacet
  facet normal 0 1 -0
    outer loop
      vertex 40 40 0
      vertex 10.037 40 28.8528
      vertex 40 40 25
    endloop
  endfacet
  facet normal 0 1 0
    outer loop
      vertex 10.037 40 28.8528
      vertex 40 40 0
      vertex 7.5 40 27.0096
    endloop
  endfacet
  facet normal 0 1 0
    outer loop
      vertex 0 40 0
      vertex 7.5 40 27.0096
      vertex 40 40 0
    endloop
  endfacet
  facet normal 0 1 0
    outer loop
      vertex 7.5 40 27.0096
      vertex 0 40 0
      vertex 4.63525 40 25.7342
    endloop
  endfacet
  facet normal 0 1 0
    outer loop
      vertex 4.63525 40 25.7342
      vertex 0 40 0
      vertex 1.56793 40 25.0822
    endloop
  endfacet
  facet normal 0 1 0
    outer loop
      vertex 1.56793 40 25.0822
      vertex 0 40 0
      vertex 0 40 25.0822
    endloop
  endfacet
  facet normal 0 0 -1
    outer loop
      vertex 15 0.0821714 0
      vertex 40 0 0
      vertex 15 0 0
    endloop
  endfacet
  facet normal 0 0 -1
    outer loop
      vertex 40 0 0
      vertex 15 0.0821714 0
      vertex 40 40 0
    endloop
  endfacet
  facet normal 0 0 -1
    outer loop
      vertex 10.3647 0.734152 0
      vertex 15 0.0821714 0
      vertex 13.4321 0.0821714 0
    endloop
  endfacet
  facet normal 0 0 -1
    outer loop
      vertex 7.5 2.00962 0
      vertex 15 0.0821714 0
      vertex 10.3647 0.734152 0
    endloop
  endfacet
  facet normal 0 0 -1
    outer loop
      vertex 15 0.0821714 0
      vertex 7.5 2.00962 0
      vertex 0 15 0
    endloop
  endfacet
  facet normal 0 0 -1
    outer loop
      vertex 0 15 0
      vertex 7.5 2.00962 0
      vertex 4.96304 3.85283 0
    endloop
  endfacet
  facet normal 0 0 -1
    outer loop
      vertex 0 15 0
      vertex 4.96304 3.85283 0
      vertex 2.86474 6.18322 0
    endloop
  endfacet
  facet normal 0 0 -1
    outer loop
      vertex 0 15 0
      vertex 2.86474 6.18322 0
      vertex 1.29682 8.89895 0
    endloop
  endfacet
  facet normal 0 0 -1
    outer loop
      vertex 0 15 0
      vertex 1.29682 8.89895 0
      vertex 0.327785 11.8813 0
    endloop
  endfacet
  facet normal 0 0 -1
    outer loop
      vertex 15 0.0821714 0
      vertex 0 15 0
      vertex 40 40 0
    endloop
  endfacet
  facet normal -0 0 -1
    outer loop
      vertex 40 40 0
      vertex 0 15 0
      vertex 0 40 0
    endloop
  endfacet
  facet normal 0 -1 0
    outer loop
      vertex 15 0 20
      vertex 25.2185 0 17.9209
      vertex 25 0 20
    endloop
  endfacet
  facet normal 0 -1 0
    outer loop
      vertex 15 0 20
      vertex 25.8645 0 15.9326
      vertex 25.2185 0 17.9209
    endloop
  endfacet
  facet normal 0 -1 0
    outer loop
      vertex 15 0 0
      vertex 25.8645 0 15.9326
      vertex 15 0 20
    endloop
  endfacet
  facet normal 0 -1 -0
    outer loop
      vertex 25.8645 0 15.9326
      vertex 15 0 0
      vertex 26.9098 0 14.1221
    endloop
  endfacet
  facet normal 0 -1 -0
    outer loop
      vertex 26.9098 0 14.1221
      vertex 15 0 0
      vertex 28.3087 0 12.5686
    endloop
  endfacet
  facet normal 0 -1 0
    outer loop
      vertex 33.9547 0 10.0548
      vertex 35 0 10
      vertex 35 0 10.0548
    endloop
  endfacet
  facet normal 0 -1 -0
    outer loop
      vertex 28.3087 0 12.5686
      vertex 15 0 0
      vertex 30 0 11.3397
    endloop
  endfacet
  facet normal 0 -1 0
    outer loop
      vertex 15 0 0
      vertex 31.9098 0 10.4894
      vertex 30 0 11.3397
    endloop
  endfacet
  facet normal 0 -1 0
    outer loop
      vertex 40 0 0
      vertex 31.9098 0 10.4894
      vertex 15 0 0
    endloop
  endfacet
  facet normal 0 -1 0
    outer loop
      vertex 31.9098 0 10.4894
      vertex 40 0 0
      vertex 33.9547 0 10.0548
    endloop
  endfacet
  facet normal 0 -1 0
    outer loop
      vertex 33.9547 0 10.0548
      vertex 40 0 0
      vertex 35 0 10
    endloop
  endfacet
  facet normal 0 -1 0
    outer loop
      vertex 35 0 10
      vertex 40 0 0
      vertex 40 0 10
    endloop
  endfacet
  facet normal 0 -0.707107 0.707107
    outer loop
      vertex 15 0 20
      vertex 25 20 40
      vertex 15 20 40
    endloop
  endfacet
  facet normal 0 -0.707107 0.707107
    outer loop
      vertex 25 20 40
      vertex 15 0 20
      vertex 25 0 20
    endloop
  endfacet
  facet normal 1 -0 0
    outer loop
      vertex 35 0 10.0548
      vertex 35 30 10
      vertex 35 30 10.0548
    endloop
  endfacet
  facet normal 1 0 0
    outer loop
      vertex 35 30 10
      vertex 35 0 10.0548
      vertex 35 0 10
    endloop
  endfacet
  facet normal 0 0 0
    outer loop
      vertex 35 30 10
      vertex 35 30 12.5686
      vertex 35 30 10.0548
    endloop
  endfacet
  facet normal 0 -1 0
    outer loop
      vertex 25 30 20
      vertex 26.5679 30 39.9178
      vertex 25 30 39.9178
    endloop
  endfacet
  facet normal 0 -1 -0
    outer loop
      vertex 26.5679 30 39.9178
      vertex 25 30 20
      vertex 29.6353 30 39.2658
    endloop
  endfacet
  facet normal 0 -1 -0
    outer loop
      vertex 29.6353 30 39.2658
      vertex 25 30 20
      vertex 32.5 30 37.9904
    endloop
  endfacet
  facet normal 0 -1 -0
    outer loop
      vertex 32.5 30 37.9904
      vertex 25 30 20
      vertex 35.037 30 36.1472
    endloop
  endfacet
  facet normal 0 -1 -0
    outer loop
      vertex 35.037 30 36.1472
      vertex 25 30 20
      vertex 37.1353 30 33.8168
    endloop
  endfacet
  facet normal 0 -1 -0
    outer loop
      vertex 37.1353 30 33.8168
      vertex 25 30 20
      vertex 38.7032 30 31.101
    endloop
  endfacet
  facet normal 0 -1 -0
    outer loop
      vertex 38.7032 30 31.101
      vertex 25 30 20
      vertex 39.6722 30 28.1187
    endloop
  endfacet
  facet normal 0 -1 -0
    outer loop
      vertex 39.6722 30 28.1187
      vertex 25 30 20
      vertex 40 30 25
    endloop
  endfacet
  facet normal 0 -1 0
    outer loop
      vertex 35 30 12.5686
      vertex 25 30 20
      vertex 25.2185 30 17.9209
    endloop
  endfacet
  facet normal 0 -1 0
    outer loop
      vertex 35 30 12.5686
      vertex 25.2185 30 17.9209
      vertex 25.8645 30 15.9326
    endloop
  endfacet
  facet normal 0 -1 0
    outer loop
      vertex 35 30 12.5686
      vertex 25.8645 30 15.9326
      vertex 26.9098 30 14.1221
    endloop
  endfacet
  facet normal 0 -1 0
    outer loop
      vertex 35 30 12.5686
      vertex 26.9098 30 14.1221
      vertex 28.3087 30 12.5686
    endloop
  endfacet
  facet normal 0 -1 0
    outer loop
      vertex 25 30 20
      vertex 35 30 12.5686
      vertex 40 30 25
    endloop
  endfacet
  facet normal 0 -1 0
    outer loop
      vertex 40 30 10
      vertex 35 30 12.5686
      vertex 35 30 10
    endloop
  endfacet
  facet normal 0 -1 0
    outer loop
      vertex 35 30 12.5686
      vertex 40 30 10
      vertex 40 30 25
    endloop
  endfacet
  facet normal 0 -1 0
    outer loop
      vertex 0 30 25.0822
      vertex 0 30 10
      vertex 1.56793 30 25.0822
    endloop
  endfacet
  facet normal 0 -1 0
    outer loop
      vertex 0 30 10
      vertex 4.63525 30 25.7342
      vertex 1.56793 30 25.0822
    endloop
  endfacet
  facet normal 0 -1 0
    outer loop
      vertex 15 30 10
      vertex 4.63525 30 25.7342
      vertex 0 30 10
    endloop
  endfacet
  facet normal 0 -1 0
    outer loop
      vertex 4.63525 30 25.7342
      vertex 15 30 10
      vertex 7.5 30 27.0096
    endloop
  endfacet
  facet normal 0 -1 0
    outer loop
      vertex 7.5 30 27.0096
      vertex 15 30 10
      vertex 10.037 30 28.8528
    endloop
  endfacet
  facet normal 0 -1 0
    outer loop
      vertex 10.037 30 28.8528
      vertex 15 30 10
      vertex 12.1353 30 31.1832
    endloop
  endfacet
  facet normal 0 -1 0
    outer loop
      vertex 14.6722 30 36.8813
      vertex 15 30 10
      vertex 15 30 40
    endloop
  endfacet
  facet normal 0 -1 0
    outer loop
      vertex 13.7032 30 33.8989
      vertex 15 30 10
      vertex 14.6722 30 36.8813
    endloop
  endfacet
  facet normal 0 -1 0
    outer loop
      vertex 12.1353 30 31.1832
      vertex 15 30 10
      vertex 13.7032 30 33.8989
    endloop
  endfacet
  facet normal -0 0 1
    outer loop
      vertex 35 30 10
      vertex 40 0 10
      vertex 40 30 10
    endloop
  endfacet
  facet normal 0 0 1
    outer loop
      vertex 40 0 10
      vertex 35 30 10
      vertex 35 0 10
    endloop
  endfacet
  facet normal -0 0 1
    outer loop
      vertex 4.96304 3.85283 10
      vertex 15 0.0821714 10
      vertex 15 30 10
    endloop
  endfacet
  facet normal 0 0 1
    outer loop
      vertex 15 0.0821714 10
      vertex 10.3647 0.734152 10
      vertex 13.4321 0.0821714 10
    endloop
  endfacet
  facet normal 0 0 1
    outer loop
      vertex 15 0.0821714 10
      vertex 7.5 2.00962 10
      vertex 10.3647 0.734152 10
    endloop
  endfacet
  facet normal 0 0 1
    outer loop
      vertex 15 0.0821714 10
      vertex 4.96304 3.85283 10
      vertex 7.5 2.00962 10
    endloop
  endfacet
  facet normal 0 0 1
    outer loop
      vertex 15 30 10
      vertex 2.86474 6.18322 10
      vertex 4.96304 3.85283 10
    endloop
  endfacet
  facet normal 0 0 1
    outer loop
      vertex 15 30 10
      vertex 1.29682 8.89895 10
      vertex 2.86474 6.18322 10
    endloop
  endfacet
  facet normal 0 0 1
    outer loop
      vertex 15 30 10
      vertex 0.327785 11.8813 10
      vertex 1.29682 8.89895 10
    endloop
  endfacet
  facet normal 0 0 1
    outer loop
      vertex 0 15 10
      vertex 15 30 10
      vertex 0 30 10
    endloop
  endfacet
  facet normal 0 0 1
    outer loop
      vertex 15 30 10
      vertex 0 15 10
      vertex 0.327785 11.8813 10
    endloop
  endfacet
  facet normal 0.866026 -0 0.5
    outer loop
      vertex 25.8645 0 15.9326
      vertex 26.9098 30 14.1221
      vertex 25.8645 30 15.9326
    endloop
  endfacet
  facet normal 0.866026 0 0.5
    outer loop
      vertex 26.9098 30 14.1221
      vertex 25.8645 0 15.9326
      vertex 26.9098 0 14.1221
    endloop
  endfacet
  facet normal 0.994522 -0 0.104529
    outer loop
      vertex 25 0 20
      vertex 25.2185 30 17.9209
      vertex 25 30 20
    endloop
  endfacet
  facet normal 0.994522 0 0.104529
    outer loop
      vertex 25.2185 30 17.9209
      vertex 25 0 20
      vertex 25.2185 0 17.9209
    endloop
  endfacet
  facet normal 0 -1 0
    outer loop
      vertex 31.9098 30 10.4894
      vertex 33.9547 30 10.0548
      vertex 28.3087 30 12.5686
    endloop
  endfacet
  facet normal 0 -1 0
    outer loop
      vertex 30 30 11.3397
      vertex 31.9098 30 10.4894
      vertex 28.3087 30 12.5686
    endloop
  endfacet
  facet normal 0.587785 0 0.809017
    outer loop
      vertex 28.3087 30 12.5686
      vertex 30 0 11.3397
      vertex 30 30 11.3397
    endloop
  endfacet
  facet normal 0.587785 0 0.809017
    outer loop
      vertex 30 0 11.3397
      vertex 28.3087 30 12.5686
      vertex 28.3087 0 12.5686
    endloop
  endfacet
  facet normal 0.951057 -0 0.309016
    outer loop
      vertex 25.2185 0 17.9209
      vertex 25.8645 30 15.9326
      vertex 25.2185 30 17.9209
    endloop
  endfacet
  facet normal 0.951057 0 0.309016
    outer loop
      vertex 25.8645 30 15.9326
      vertex 25.2185 0 17.9209
      vertex 25.8645 0 15.9326
    endloop
  endfacet
  facet normal 0.743145 -0 0.669131
    outer loop
      vertex 26.9098 0 14.1221
      vertex 28.3087 30 12.5686
      vertex 26.9098 30 14.1221
    endloop
  endfacet
  facet normal 0.743145 0 0.669131
    outer loop
      vertex 28.3087 30 12.5686
      vertex 26.9098 0 14.1221
      vertex 28.3087 0 12.5686
    endloop
  endfacet
  facet normal 0.406737 0 0.913545
    outer loop
      vertex 30 30 11.3397
      vertex 31.9098 0 10.4894
      vertex 31.9098 30 10.4894
    endloop
  endfacet
  facet normal 0.406737 0 0.913545
    outer loop
      vertex 31.9098 0 10.4894
      vertex 30 30 11.3397
      vertex 30 0 11.3397
    endloop
  endfacet
  facet normal 0 -1 0
    outer loop
      vertex 33.9547 30 10.0548
      vertex 35 30 12.5686
      vertex 28.3087 30 12.5686
    endloop
  endfacet
  facet normal 0 -1 -0
    outer loop
      vertex 35 30 12.5686
      vertex 33.9547 30 10.0548
      vertex 35 30 10.0548
    endloop
  endfacet
  facet normal 0.207911 0 0.978148
    outer loop
      vertex 31.9098 30 10.4894
      vertex 33.9547 0 10.0548
      vertex 33.9547 30 10.0548
    endloop
  endfacet
  facet normal 0.207911 0 0.978148
    outer loop
      vertex 33.9547 0 10.0548
      vertex 31.9098 30 10.4894
      vertex 31.9098 0 10.4894
    endloop
  endfacet
  facet normal -0 0 1
    outer loop
      vertex 33.9547 30 10.0548
      vertex 35 0 10.0548
      vertex 35 30 10.0548
    endloop
  endfacet
  facet normal 0 0 1
    outer loop
      vertex 35 0 10.0548
      vertex 33.9547 30 10.0548
      vertex 33.9547 0 10.0548
    endloop
  endfacet
  facet normal -1 0 0
    outer loop
      vertex 0 40 0
      vertex 0 30 10
      vertex 0 40 25.0822
    endloop
  endfacet
  facet normal -1 0 0
    outer loop
      vertex 0 15 0
      vertex 0 30 10
      vertex 0 40 0
    endloop
  endfacet
  facet normal -1 -0 0
    outer loop
      vertex 0 30 10
      vertex 0 15 0
      vertex 0 15 10
    endloop
  endfacet
  facet normal -1 -0 0
    outer loop
      vertex 0 40 25.0822
      vertex 0 30 10
      vertex 0 30 25.0822
    endloop
  endfacet
  facet normal -0.743145 0 0.669131
    outer loop
      vertex 10.037 30 28.8528
      vertex 12.1353 40 31.1832
      vertex 10.037 40 28.8528
    endloop
  endfacet
  facet normal -0.743145 0 0.669131
    outer loop
      vertex 12.1353 40 31.1832
      vertex 10.037 30 28.8528
      vertex 12.1353 30 31.1832
    endloop
  endfacet
  facet normal -0.994522 0 0.104529
    outer loop
      vertex 14.6722 30 36.8813
      vertex 15 40 40
      vertex 14.6722 40 36.8813
    endloop
  endfacet
  facet normal -0.994522 0 0.104529
    outer loop
      vertex 15 40 40
      vertex 14.6722 30 36.8813
      vertex 15 30 40
    endloop
  endfacet
  facet normal -0.587785 0 0.809017
    outer loop
      vertex 7.5 40 27.0096
      vertex 10.037 30 28.8528
      vertex 10.037 40 28.8528
    endloop
  endfacet
  facet normal -0.587785 0 0.809017
    outer loop
      vertex 10.037 30 28.8528
      vertex 7.5 40 27.0096
      vertex 7.5 30 27.0096
    endloop
  endfacet
  facet normal -0.207911 0 0.978148
    outer loop
      vertex 1.56793 40 25.0822
      vertex 4.63525 30 25.7342
      vertex 4.63525 40 25.7342
    endloop
  endfacet
  facet normal -0.207911 0 0.978148
    outer loop
      vertex 4.63525 30 25.7342
      vertex 1.56793 40 25.0822
      vertex 1.56793 30 25.0822
    endloop
  endfacet
  facet normal -0.406737 0 0.913545
    outer loop
      vertex 4.63525 40 25.7342
      vertex 7.5 30 27.0096
      vertex 7.5 40 27.0096
    endloop
  endfacet
  facet normal -0.406737 0 0.913545
    outer loop
      vertex 7.5 30 27.0096
      vertex 4.63525 40 25.7342
      vertex 4.63525 30 25.7342
    endloop
  endfacet
  facet normal -0.866025 0 0.5
    outer loop
      vertex 12.1353 30 31.1832
      vertex 13.7032 40 33.8989
      vertex 12.1353 40 31.1832
    endloop
  endfacet
  facet normal -0.866025 0 0.5
    outer loop
      vertex 13.7032 40 33.8989
      vertex 12.1353 30 31.1832
      vertex 13.7032 30 33.8989
    endloop
  endfacet
  facet normal -0.951057 0 0.309017
    outer loop
      vertex 13.7032 30 33.8989
      vertex 14.6722 40 36.8813
      vertex 13.7032 40 33.8989
    endloop
  endfacet
  facet normal -0.951057 0 0.309017
    outer loop
      vertex 14.6722 40 36.8813
      vertex 13.7032 30 33.8989
      vertex 14.6722 30 36.8813
    endloop
  endfacet
  facet normal -0 0 1
    outer loop
      vertex 0 40 25.0822
      vertex 1.56793 30 25.0822
      vertex 1.56793 40 25.0822
    endloop
  endfacet
  facet normal 0 0 1
    outer loop
      vertex 1.56793 30 25.0822
      vertex 0 40 25.0822
      vertex 0 30 25.0822
    endloop
  endfacet
  facet normal 0.994522 -0 0.104528
    outer loop
      vertex 39.6722 30 28.1187
      vertex 40 40 25
      vertex 39.6722 40 28.1187
    endloop
  endfacet
  facet normal 0.994522 0 0.104528
    outer loop
      vertex 40 40 25
      vertex 39.6722 30 28.1187
      vertex 40 30 25
    endloop
  endfacet
  facet normal 0.951057 -0 0.309017
    outer loop
      vertex 38.7032 30 31.101
      vertex 39.6722 40 28.1187
      vertex 38.7032 40 31.101
    endloop
  endfacet
  facet normal 0.951057 0 0.309017
    outer loop
      vertex 39.6722 40 28.1187
      vertex 38.7032 30 31.101
      vertex 39.6722 30 28.1187
    endloop
  endfacet
  facet normal 0.587786 0 0.809017
    outer loop
      vertex 32.5 40 37.9904
      vertex 35.037 30 36.1472
      vertex 35.037 40 36.1472
    endloop
  endfacet
  facet normal 0.587786 0 0.809017
    outer loop
      vertex 35.037 30 36.1472
      vertex 32.5 40 37.9904
      vertex 32.5 30 37.9904
    endloop
  endfacet
  facet normal 0.866025 -0 0.5
    outer loop
      vertex 37.1353 30 33.8168
      vertex 38.7032 40 31.101
      vertex 37.1353 40 33.8168
    endloop
  endfacet
  facet normal 0.866025 0 0.5
    outer loop
      vertex 38.7032 40 31.101
      vertex 37.1353 30 33.8168
      vertex 38.7032 30 31.101
    endloop
  endfacet
  facet normal 0.207912 0 0.978148
    outer loop
      vertex 26.5679 40 39.9178
      vertex 29.6353 30 39.2658
      vertex 29.6353 40 39.2658
    endloop
  endfacet
  facet normal 0.207912 0 0.978148
    outer loop
      vertex 29.6353 30 39.2658
      vertex 26.5679 40 39.9178
      vertex 26.5679 30 39.9178
    endloop
  endfacet
  facet normal 0.406737 0 0.913545
    outer loop
      vertex 29.6353 40 39.2658
      vertex 32.5 30 37.9904
      vertex 32.5 40 37.9904
    endloop
  endfacet
  facet normal 0.406737 0 0.913545
    outer loop
      vertex 32.5 30 37.9904
      vertex 29.6353 40 39.2658
      vertex 29.6353 30 39.2658
    endloop
  endfacet
  facet normal 0.743144 -0 0.669131
    outer loop
      vertex 35.037 30 36.1472
      vertex 37.1353 40 33.8168
      vertex 35.037 40 36.1472
    endloop
  endfacet
  facet normal 0.743144 0 0.669131
    outer loop
      vertex 37.1353 40 33.8168
      vertex 35.037 30 36.1472
      vertex 37.1353 30 33.8168
    endloop
  endfacet
  facet normal -0 0 1
    outer loop
      vertex 25 40 39.9178
      vertex 26.5679 30 39.9178
      vertex 26.5679 40 39.9178
    endloop
  endfacet
  facet normal 0 0 1
    outer loop
      vertex 26.5679 30 39.9178
      vertex 25 40 39.9178
      vertex 25 30 39.9178
    endloop
  endfacet
  facet normal 1 0 0
    outer loop
      vertex 40 30 10
      vertex 40 40 25
      vertex 40 30 25
    endloop
  endfacet
  facet normal 1 0 0
    outer loop
      vertex 40 40 25
      vertex 40 30 10
      vertex 40 40 0
    endloop
  endfacet
  facet normal 1 0 0
    outer loop
      vertex 40 0 0
      vertex 40 30 10
      vertex 40 0 10
    endloop
  endfacet
  facet normal 1 0 0
    outer loop
      vertex 40 30 10
      vertex 40 0 0
      vertex 40 40 0
    endloop
  endfacet
  facet normal -0.994522 -0.104528 0
    outer loop
      vertex 0.327785 11.8813 0
      vertex 0 15 10
      vertex 0 15 0
    endloop
  endfacet
  facet normal -0.994522 -0.104528 0
    outer loop
      vertex 0 15 10
      vertex 0.327785 11.8813 0
      vertex 0.327785 11.8813 10
    endloop
  endfacet
  facet normal -0.406737 -0.913545 0
    outer loop
      vertex 7.5 2.00962 0
      vertex 10.3647 0.734152 10
      vertex 7.5 2.00962 10
    endloop
  endfacet
  facet normal -0.406737 -0.913545 -0
    outer loop
      vertex 10.3647 0.734152 10
      vertex 7.5 2.00962 0
      vertex 10.3647 0.734152 0
    endloop
  endfacet
  facet normal -0.743145 -0.669131 0
    outer loop
      vertex 4.96304 3.85283 0
      vertex 2.86474 6.18322 10
      vertex 2.86474 6.18322 0
    endloop
  endfacet
  facet normal -0.743145 -0.669131 0
    outer loop
      vertex 2.86474 6.18322 10
      vertex 4.96304 3.85283 0
      vertex 4.96304 3.85283 10
    endloop
  endfacet
  facet normal 0 -1 0
    outer loop
      vertex 13.4321 0.0821714 0
      vertex 15 0.0821714 10
      vertex 13.4321 0.0821714 10
    endloop
  endfacet
  facet normal 0 -1 -0
    outer loop
      vertex 15 0.0821714 10
      vertex 13.4321 0.0821714 0
      vertex 15 0.0821714 0
    endloop
  endfacet
  facet normal -0.207912 -0.978148 0
    outer loop
      vertex 10.3647 0.734152 0
      vertex 13.4321 0.0821714 10
      vertex 10.3647 0.734152 10
    endloop
  endfacet
  facet normal -0.207912 -0.978148 -0
    outer loop
      vertex 13.4321 0.0821714 10
      vertex 10.3647 0.734152 0
      vertex 13.4321 0.0821714 0
    endloop
  endfacet
  facet normal -0.587785 -0.809017 0
    outer loop
      vertex 4.96304 3.85283 0
      vertex 7.5 2.00962 10
      vertex 4.96304 3.85283 10
    endloop
  endfacet
  facet normal -0.587785 -0.809017 -0
    outer loop
      vertex 7.5 2.00962 10
      vertex 4.96304 3.85283 0
      vertex 7.5 2.00962 0
    endloop
  endfacet
  facet normal -0.866025 -0.5 0
    outer loop
      vertex 2.86474 6.18322 0
      vertex 1.29682 8.89895 10
      vertex 1.29682 8.89895 0
    endloop
  endfacet
  facet normal -0.866025 -0.5 0
    outer loop
      vertex 1.29682 8.89895 10
      vertex 2.86474 6.18322 0
      vertex 2.86474 6.18322 10
    endloop
  endfacet
  facet normal -0.951057 -0.309017 0
    outer loop
      vertex 1.29682 8.89895 0
      vertex 0.327785 11.8813 10
      vertex 0.327785 11.8813 0
    endloop
  endfacet
  facet normal -0.951057 -0.309017 0
    outer loop
      vertex 0.327785 11.8813 10
      vertex 1.29682 8.89895 0
      vertex 1.29682 8.89895 10
    endloop
  endfacet
endsolid OpenSCAD_Model
