solid OpenSCAD_Model
  facet normal -1 0 0
    outer loop
      vertex -20 20 -20
      vertex -20 10.0548 -10
      vertex -20 20 -10
    endloop
  endfacet
  facet normal -1 0 0
    outer loop
      vertex -20 10.0548 -10
      vertex -20 -10.0548 -10
      vertex -20 10.0548 20
    endloop
  endfacet
  facet normal -1 0 0
    outer loop
      vertex -20 20 -20
      vertex -20 -10.0548 -10
      vertex -20 10.0548 -10
    endloop
  endfacet
  facet normal -1 0 0
    outer loop
      vertex -20 -20 -20
      vertex -20 -10.0548 -10
      vertex -20 20 -20
    endloop
  endfacet
  facet normal -1 -0 0
    outer loop
      vertex -20 -10.0548 -10
      vertex -20 -20 -20
      vertex -20 -20 -10
    endloop
  endfacet
  facet normal -1 -0 0
    outer loop
      vertex -20 10.0548 20
      vertex -20 -10.0548 -10
      vertex -20 -10.0548 20
    endloop
  endfacet
  facet normal 0 0 1
    outer loop
      vertex 18.9547 10.0548 20
      vertex 9.78148 2.07912 20
      vertex 10 0 20
    endloop
  endfacet
  facet normal 0 0 1
    outer loop
      vertex 10.2185 17.9209 20
      vertex 9.13545 4.06737 20
      vertex 9.78148 2.07912 20
    endloop
  endfacet
  facet normal 0 0 1
    outer loop
      vertex 10.2185 17.9209 20
      vertex 8.09017 5.87785 20
      vertex 9.13545 4.06737 20
    endloop
  endfacet
  facet normal 0 0 1
    outer loop
      vertex 10.2185 17.9209 20
      vertex 6.69131 7.43145 20
      vertex 8.09017 5.87785 20
    endloop
  endfacet
  facet normal 0 0 1
    outer loop
      vertex 10.2185 17.9209 20
      vertex 5 8.66025 20
      vertex 6.69131 7.43145 20
    endloop
  endfacet
  facet normal 0 0 1
    outer loop
      vertex 10.2185 17.9209 20
      vertex 3.09017 9.51056 20
      vertex 5 8.66025 20
    endloop
  endfacet
  facet normal 0 0 1
    outer loop
      vertex 10.2185 17.9209 20
      vertex 1.04528 9.94522 20
      vertex 3.09017 9.51056 20
    endloop
  endfacet
  facet normal 0 0 1
    outer loop
      vertex 10 20 20
      vertex -1.04528 9.94522 20
      vertex 1.04528 9.94522 20
    endloop
  endfacet
  facet normal -0 0 1
    outer loop
      vertex -10 20 20
      vertex -1.04528 9.94522 20
      vertex 10 20 20
    endloop
  endfacet
  facet normal -0 0 1
    outer loop
      vertex -10.2185 17.9209 20
      vertex -1.04528 9.94522 20
      vertex -10 20 20
    endloop
  endfacet
  facet normal -0 0 1
    outer loop
      vertex -10.8645 15.9326 20
      vertex -3.09017 9.51056 20
      vertex -10.2185 17.9209 20
    endloop
  endfacet
  facet normal 0 0 1
    outer loop
      vertex -1.04528 9.94522 20
      vertex -10.2185 17.9209 20
      vertex -3.09017 9.51056 20
    endloop
  endfacet
  facet normal 0 0 1
    outer loop
      vertex -3.09017 9.51056 20
      vertex -10.8645 15.9326 20
      vertex -5 8.66025 20
    endloop
  endfacet
  facet normal -0 0 1
    outer loop
      vertex -11.9098 14.1221 20
      vertex -5 8.66025 20
      vertex -10.8645 15.9326 20
    endloop
  endfacet
  facet normal 0 0 1
    outer loop
      vertex -5 8.66025 20
      vertex -11.9098 14.1221 20
      vertex -6.69131 7.43145 20
    endloop
  endfacet
  facet normal -0 0 1
    outer loop
      vertex -13.3087 12.5686 20
      vertex -6.69131 7.43145 20
      vertex -11.9098 14.1221 20
    endloop
  endfacet
  facet normal 0 0 1
    outer loop
      vertex -6.69131 7.43145 20
      vertex -13.3087 12.5686 20
      vertex -8.09017 5.87785 20
    endloop
  endfacet
  facet normal -0 0 1
    outer loop
      vertex -15 11.3397 20
      vertex -8.09017 5.87785 20
      vertex -13.3087 12.5686 20
    endloop
  endfacet
  facet normal 0 0 1
    outer loop
      vertex -10 0 20
      vertex -10.2185 -17.9209 20
      vertex -10 -20 20
    endloop
  endfacet
  facet normal 0 0 1
    outer loop
      vertex -8.09017 5.87785 20
      vertex -15 11.3397 20
      vertex -9.13545 4.06737 20
    endloop
  endfacet
  facet normal 0 0 1
    outer loop
      vertex -10 0 20
      vertex -10.8645 -15.9326 20
      vertex -10.2185 -17.9209 20
    endloop
  endfacet
  facet normal -0 0 1
    outer loop
      vertex -16.9098 10.4894 20
      vertex -9.13545 4.06737 20
      vertex -15 11.3397 20
    endloop
  endfacet
  facet normal 0 0 1
    outer loop
      vertex -10 0 20
      vertex -11.9098 -14.1221 20
      vertex -10.8645 -15.9326 20
    endloop
  endfacet
  facet normal 0 0 1
    outer loop
      vertex -9.13545 4.06737 20
      vertex -16.9098 10.4894 20
      vertex -9.78148 2.07912 20
    endloop
  endfacet
  facet normal 0 0 1
    outer loop
      vertex -10 0 20
      vertex -13.3087 -12.5686 20
      vertex -11.9098 -14.1221 20
    endloop
  endfacet
  facet normal -0 0 1
    outer loop
      vertex -18.9547 10.0548 20
      vertex -9.78148 2.07912 20
      vertex -16.9098 10.4894 20
    endloop
  endfacet
  facet normal 0 0 1
    outer loop
      vertex -10 0 20
      vertex -15 -11.3397 20
      vertex -13.3087 -12.5686 20
    endloop
  endfacet
  facet normal 0 0 1
    outer loop
      vertex -9.78148 2.07912 20
      vertex -18.9547 10.0548 20
      vertex -10 0 20
    endloop
  endfacet
  facet normal 0 0 1
    outer loop
      vertex -10 0 20
      vertex -16.9098 -10.4894 20
      vertex -15 -11.3397 20
    endloop
  endfacet
  facet normal -0 0 1
    outer loop
      vertex -20 10.0548 20
      vertex -10 0 20
      vertex -18.9547 10.0548 20
    endloop
  endfacet
  facet normal 0 0 1
    outer loop
      vertex -10 0 20
      vertex -18.9547 -10.0548 20
      vertex -16.9098 -10.4894 20
    endloop
  endfacet
  facet normal 0 0 1
    outer loop
      vertex -20 -10.0548 20
      vertex -10 0 20
      vertex -20 10.0548 20
    endloop
  endfacet
  facet normal 0 0 1
    outer loop
      vertex -10 0 20
      vertex -20 -10.0548 20
      vertex -18.9547 -10.0548 20
    endloop
  endfacet
  facet normal 0 0 1
    outer loop
      vertex 10 0 20
      vertex 20 10.0548 20
      vertex 18.9547 10.0548 20
    endloop
  endfacet
  facet normal 0 0 1
    outer loop
      vertex 20 10.0548 20
      vertex 10 0 20
      vertex 20 -10.0548 20
    endloop
  endfacet
  facet normal 0 0 1
    outer loop
      vertex 9.78148 2.07912 20
      vertex 18.9547 10.0548 20
      vertex 16.9098 10.4894 20
    endloop
  endfacet
  facet normal 0 0 1
    outer loop
      vertex 20 -10.0548 20
      vertex 10 0 20
      vertex 18.9547 -10.0548 20
    endloop
  endfacet
  facet normal -0 0 1
    outer loop
      vertex 9.78148 -2.07912 20
      vertex 18.9547 -10.0548 20
      vertex 10 0 20
    endloop
  endfacet
  facet normal 0 0 1
    outer loop
      vertex 9.78148 2.07912 20
      vertex 16.9098 10.4894 20
      vertex 15 11.3397 20
    endloop
  endfacet
  facet normal 0 0 1
    outer loop
      vertex 9.78148 2.07912 20
      vertex 15 11.3397 20
      vertex 13.3087 12.5686 20
    endloop
  endfacet
  facet normal 0 0 1
    outer loop
      vertex 18.9547 -10.0548 20
      vertex 9.78148 -2.07912 20
      vertex 16.9098 -10.4894 20
    endloop
  endfacet
  facet normal 0 0 1
    outer loop
      vertex 9.78148 2.07912 20
      vertex 13.3087 12.5686 20
      vertex 11.9098 14.1221 20
    endloop
  endfacet
  facet normal -0 0 1
    outer loop
      vertex 9.13545 -4.06737 20
      vertex 16.9098 -10.4894 20
      vertex 9.78148 -2.07912 20
    endloop
  endfacet
  facet normal 0 0 1
    outer loop
      vertex 9.78148 2.07912 20
      vertex 11.9098 14.1221 20
      vertex 10.8645 15.9326 20
    endloop
  endfacet
  facet normal 0 0 1
    outer loop
      vertex 16.9098 -10.4894 20
      vertex 9.13545 -4.06737 20
      vertex 15 -11.3397 20
    endloop
  endfacet
  facet normal 0 0 1
    outer loop
      vertex 9.78148 2.07912 20
      vertex 10.8645 15.9326 20
      vertex 10.2185 17.9209 20
    endloop
  endfacet
  facet normal -0 0 1
    outer loop
      vertex 8.09017 -5.87785 20
      vertex 15 -11.3397 20
      vertex 9.13545 -4.06737 20
    endloop
  endfacet
  facet normal 0 0 1
    outer loop
      vertex 1.04528 9.94522 20
      vertex 10.2185 17.9209 20
      vertex 10 20 20
    endloop
  endfacet
  facet normal 0 0 1
    outer loop
      vertex 15 -11.3397 20
      vertex 8.09017 -5.87785 20
      vertex 13.3087 -12.5686 20
    endloop
  endfacet
  facet normal -0 0 1
    outer loop
      vertex 6.69131 -7.43145 20
      vertex 13.3087 -12.5686 20
      vertex 8.09017 -5.87785 20
    endloop
  endfacet
  facet normal 0 0 1
    outer loop
      vertex 13.3087 -12.5686 20
      vertex 6.69131 -7.43145 20
      vertex 11.9098 -14.1221 20
    endloop
  endfacet
  facet normal -0 0 1
    outer loop
      vertex 5 -8.66025 20
      vertex 11.9098 -14.1221 20
      vertex 6.69131 -7.43145 20
    endloop
  endfacet
  facet normal 0 0 1
    outer loop
      vertex 11.9098 -14.1221 20
      vertex 5 -8.66025 20
      vertex 10.8645 -15.9326 20
    endloop
  endfacet
  facet normal -0 0 1
    outer loop
      vertex 3.09017 -9.51056 20
      vertex 10.8645 -15.9326 20
      vertex 5 -8.66025 20
    endloop
  endfacet
  facet normal 0 0 1
    outer loop
      vertex 10.8645 -15.9326 20
      vertex 3.09017 -9.51056 20
      vertex 10.2185 -17.9209 20
    endloop
  endfacet
  facet normal -0 0 1
    outer loop
      vertex 1.04528 -9.94522 20
      vertex 10.2185 -17.9209 20
      vertex 3.09017 -9.51056 20
    endloop
  endfacet
  facet normal 0 0 1
    outer loop
      vertex 10.2185 -17.9209 20
      vertex 1.04528 -9.94522 20
      vertex 10 -20 20
    endloop
  endfacet
  facet normal -0 0 1
    outer loop
      vertex -1.04528 -9.94522 20
      vertex 10 -20 20
      vertex 1.04528 -9.94522 20
    endloop
  endfacet
  facet normal 0 0 1
    outer loop
      vertex -10 -20 20
      vertex -1.04528 -9.94522 20
      vertex -3.09017 -9.51056 20
    endloop
  endfacet
  facet normal 0 0 1
    outer loop
      vertex -10 -20 20
      vertex -3.09017 -9.51056 20
      vertex -5 -8.66025 20
    endloop
  endfacet
  facet normal 0 0 1
    outer loop
      vertex -10 -20 20
      vertex -5 -8.66025 20
      vertex -6.69131 -7.43145 20
    endloop
  endfacet
  facet normal 0 0 1
    outer loop
      vertex -1.04528 -9.94522 20
      vertex -10 -20 20
      vertex 10 -20 20
    endloop
  endfacet
  facet normal 0 0 1
    outer loop
      vertex -8.09017 -5.87785 20
      vertex -10 -20 20
      vertex -6.69131 -7.43145 20
    endloop
  endfacet
  facet normal 0 0 1
    outer loop
      vertex -9.13545 -4.06737 20
      vertex -10 -20 20
      vertex -8.09017 -5.87785 20
    endloop
  endfacet
  facet normal 0 0 1
    outer loop
      vertex -9.78148 -2.07912 20
      vertex -10 -20 20
      vertex -9.13545 -4.06737 20
    endloop
  endfacet
  facet normal 0 0 1
    outer loop
      vertex -10 -20 20
      vertex -9.78148 -2.07912 20
      vertex -10 0 20
    endloop
  endfacet
  facet normal 1 0 0
    outer loop
      vertex 20 10.0548 20
      vertex 20 -10.0548 20
      vertex 20 10.0548 -10
    endloop
  endfacet
  facet normal 1 -0 0
    outer loop
      vertex 20 10.0548 -10
      vertex 20 20 -20
      vertex 20 20 -10
    endloop
  endfacet
  facet normal 1 0 0
    outer loop
      vertex 20 -10.0548 -10
      vertex 20 10.0548 -10
      vertex 20 -10.0548 20
    endloop
  endfacet
  facet normal 1 -0 0
    outer loop
      vertex 20 -10.0548 -10
      vertex 20 20 -20
      vertex 20 10.0548 -10
    endloop
  endfacet
  facet normal 1 0 0
    outer loop
      vertex 20 -20 -20
      vertex 20 -10.0548 -10
      vertex 20 -20 -10
    endloop
  endfacet
  facet normal 1 0 0
    outer loop
      vertex 20 -10.0548 -10
      vertex 20 -20 -20
      vertex 20 20 -20
    endloop
  endfacet
  facet normal 0 1 -0
    outer loop
      vertex 20 20 -20
      vertex 10 20 -10
      vertex 20 20 -10
    endloop
  endfacet
  facet normal 0 1 0
    outer loop
      vertex 10 20 -10
      vertex 20 20 -20
      vertex -10 20 -10
    endloop
  endfacet
  facet normal 0 1 0
    outer loop
      vertex -20 20 -20
      vertex -10 20 -10
      vertex 20 20 -20
    endloop
  endfacet
  facet normal 0 1 0
    outer loop
      vertex -10 20 -10
      vertex -20 20 -20
      vertex -20 20 -10
    endloop
  endfacet
  facet normal 0 1 -0
    outer loop
      vertex 10 20 -10
      vertex -10 20 20
      vertex 10 20 20
    endloop
  endfacet
  facet normal 0 1 0
    outer loop
      vertex -10 20 20
      vertex 10 20 -10
      vertex -10 20 -10
    endloop
  endfacet
  facet normal 0 0 -1
    outer loop
      vertex 20 -20 -20
      vertex 10 0 -20
      vertex 20 20 -20
    endloop
  endfacet
  facet normal 0 0 -1
    outer loop
      vertex 20 -20 -20
      vertex 9.78148 -2.07912 -20
      vertex 10 0 -20
    endloop
  endfacet
  facet normal 0 0 -1
    outer loop
      vertex 20 -20 -20
      vertex 9.13545 -4.06737 -20
      vertex 9.78148 -2.07912 -20
    endloop
  endfacet
  facet normal 0 0 -1
    outer loop
      vertex 20 -20 -20
      vertex 8.09017 -5.87785 -20
      vertex 9.13545 -4.06737 -20
    endloop
  endfacet
  facet normal 0 0 -1
    outer loop
      vertex 20 -20 -20
      vertex 6.69131 -7.43145 -20
      vertex 8.09017 -5.87785 -20
    endloop
  endfacet
  facet normal 0 0 -1
    outer loop
      vertex 20 -20 -20
      vertex 5 -8.66025 -20
      vertex 6.69131 -7.43145 -20
    endloop
  endfacet
  facet normal 0 0 -1
    outer loop
      vertex 20 -20 -20
      vertex 3.09017 -9.51056 -20
      vertex 5 -8.66025 -20
    endloop
  endfacet
  facet normal 0 0 -1
    outer loop
      vertex 20 -20 -20
      vertex 1.04528 -9.94522 -20
      vertex 3.09017 -9.51056 -20
    endloop
  endfacet
  facet normal 0 0 -1
    outer loop
      vertex 20 -20 -20
      vertex -1.04528 -9.94522 -20
      vertex 1.04528 -9.94522 -20
    endloop
  endfacet
  facet normal 0 0 -1
    outer loop
      vertex -20 -20 -20
      vertex -1.04528 -9.94522 -20
      vertex 20 -20 -20
    endloop
  endfacet
  facet normal -0 0 -1
    outer loop
      vertex -1.04528 -9.94522 -20
      vertex -20 -20 -20
      vertex -3.09017 -9.51056 -20
    endloop
  endfacet
  facet normal -0 0 -1
    outer loop
      vertex -9.78148 -2.07912 -20
      vertex -20 -20 -20
      vertex -10 0 -20
    endloop
  endfacet
  facet normal -0 0 -1
    outer loop
      vertex -9.13545 -4.06737 -20
      vertex -20 -20 -20
      vertex -9.78148 -2.07912 -20
    endloop
  endfacet
  facet normal -0 0 -1
    outer loop
      vertex -8.09017 -5.87785 -20
      vertex -20 -20 -20
      vertex -9.13545 -4.06737 -20
    endloop
  endfacet
  facet normal -0 0 -1
    outer loop
      vertex -6.69131 -7.43145 -20
      vertex -20 -20 -20
      vertex -8.09017 -5.87785 -20
    endloop
  endfacet
  facet normal -0 0 -1
    outer loop
      vertex -5 -8.66025 -20
      vertex -20 -20 -20
      vertex -6.69131 -7.43145 -20
    endloop
  endfacet
  facet normal -0 0 -1
    outer loop
      vertex -3.09017 -9.51056 -20
      vertex -20 -20 -20
      vertex -5 -8.66025 -20
    endloop
  endfacet
  facet normal 0 0 -1
    outer loop
      vertex 9.78148 2.07912 -20
      vertex 20 20 -20
      vertex 10 0 -20
    endloop
  endfacet
  facet normal 0 0 -1
    outer loop
      vertex 9.13545 4.06737 -20
      vertex 20 20 -20
      vertex 9.78148 2.07912 -20
    endloop
  endfacet
  facet normal 0 0 -1
    outer loop
      vertex 8.09017 5.87785 -20
      vertex 20 20 -20
      vertex 9.13545 4.06737 -20
    endloop
  endfacet
  facet normal 0 0 -1
    outer loop
      vertex 6.69131 7.43145 -20
      vertex 20 20 -20
      vertex 8.09017 5.87785 -20
    endloop
  endfacet
  facet normal 0 0 -1
    outer loop
      vertex 5 8.66025 -20
      vertex 20 20 -20
      vertex 6.69131 7.43145 -20
    endloop
  endfacet
  facet normal 0 0 -1
    outer loop
      vertex 3.09017 9.51056 -20
      vertex 20 20 -20
      vertex 5 8.66025 -20
    endloop
  endfacet
  facet normal 0 0 -1
    outer loop
      vertex 1.04528 9.94522 -20
      vertex 20 20 -20
      vertex 3.09017 9.51056 -20
    endloop
  endfacet
  facet normal 0 0 -1
    outer loop
      vertex -1.04528 9.94522 -20
      vertex 20 20 -20
      vertex 1.04528 9.94522 -20
    endloop
  endfacet
  facet normal 0 0 -1
    outer loop
      vertex -20 20 -20
      vertex -1.04528 9.94522 -20
      vertex -3.09017 9.51056 -20
    endloop
  endfacet
  facet normal 0 0 -1
    outer loop
      vertex -20 20 -20
      vertex -3.09017 9.51056 -20
      vertex -5 8.66025 -20
    endloop
  endfacet
  facet normal 0 0 -1
    outer loop
      vertex -20 20 -20
      vertex -10 0 -20
      vertex -20 -20 -20
    endloop
  endfacet
  facet normal 0 0 -1
    outer loop
      vertex -10 0 -20
      vertex -20 20 -20
      vertex -9.78148 2.07912 -20
    endloop
  endfacet
  facet normal 0 0 -1
    outer loop
      vertex -1.04528 9.94522 -20
      vertex -20 20 -20
      vertex 20 20 -20
    endloop
  endfacet
  facet normal 0 0 -1
    outer loop
      vertex -6.69131 7.43145 -20
      vertex -20 20 -20
      vertex -5 8.66025 -20
    endloop
  endfacet
  facet normal 0 0 -1
    outer loop
      vertex -8.09017 5.87785 -20
      vertex -20 20 -20
      vertex -6.69131 7.43145 -20
    endloop
  endfacet
  facet normal 0 0 -1
    outer loop
      vertex -9.13545 4.06737 -20
      vertex -20 20 -20
      vertex -8.09017 5.87785 -20
    endloop
  endfacet
  facet normal 0 0 -1
    outer loop
      vertex -9.78148 2.07912 -20
      vertex -20 20 -20
      vertex -9.13545 4.06737 -20
    endloop
  endfacet
  facet normal 0 -1 0
    outer loop
      vertex -20 -20 -20
      vertex -10 -20 -10
      vertex -20 -20 -10
    endloop
  endfacet
  facet normal 0 -1 -0
    outer loop
      vertex -10 -20 -10
      vertex -20 -20 -20
      vertex 10 -20 -10
    endloop
  endfacet
  facet normal 0 -1 0
    outer loop
      vertex 20 -20 -20
      vertex 10 -20 -10
      vertex -20 -20 -20
    endloop
  endfacet
  facet normal 0 -1 0
    outer loop
      vertex 10 -20 -10
      vertex 20 -20 -20
      vertex 20 -20 -10
    endloop
  endfacet
  facet normal 0 -1 0
    outer loop
      vertex -10 -20 -10
      vertex 10 -20 20
      vertex -10 -20 20
    endloop
  endfacet
  facet normal 0 -1 -0
    outer loop
      vertex 10 -20 20
      vertex -10 -20 -10
      vertex 10 -20 -10
    endloop
  endfacet
  facet normal -0.994522 -0.104529 0
    outer loop
      vertex 10 0 -20
      vertex 9.78148 2.07912 20
      vertex 9.78148 2.07912 -20
    endloop
  endfacet
  facet normal -0.994522 -0.104529 0
    outer loop
      vertex 9.78148 2.07912 20
      vertex 10 0 -20
      vertex 10 0 20
    endloop
  endfacet
  facet normal 0.994522 -0.104529 0
    outer loop
      vertex -10 0 20
      vertex -9.78148 2.07912 -20
      vertex -9.78148 2.07912 20
    endloop
  endfacet
  facet normal 0.994522 -0.104529 0
    outer loop
      vertex -9.78148 2.07912 -20
      vertex -10 0 20
      vertex -10 0 -20
    endloop
  endfacet
  facet normal 0 -1 0
    outer loop
      vertex -1.04528 9.94522 -20
      vertex 1.04528 9.94522 20
      vertex -1.04528 9.94522 20
    endloop
  endfacet
  facet normal 0 -1 -0
    outer loop
      vertex 1.04528 9.94522 20
      vertex -1.04528 9.94522 -20
      vertex 1.04528 9.94522 -20
    endloop
  endfacet
  facet normal 0 1 -0
    outer loop
      vertex 1.04528 -9.94522 -20
      vertex -1.04528 -9.94522 20
      vertex 1.04528 -9.94522 20
    endloop
  endfacet
  facet normal 0 1 0
    outer loop
      vertex -1.04528 -9.94522 20
      vertex 1.04528 -9.94522 -20
      vertex -1.04528 -9.94522 -20
    endloop
  endfacet
  facet normal -0.587785 -0.809017 0
    outer loop
      vertex 5 8.66025 -20
      vertex 6.69131 7.43145 20
      vertex 5 8.66025 20
    endloop
  endfacet
  facet normal -0.587785 -0.809017 -0
    outer loop
      vertex 6.69131 7.43145 20
      vertex 5 8.66025 -20
      vertex 6.69131 7.43145 -20
    endloop
  endfacet
  facet normal -0.406737 -0.913545 0
    outer loop
      vertex 3.09017 9.51056 -20
      vertex 5 8.66025 20
      vertex 3.09017 9.51056 20
    endloop
  endfacet
  facet normal -0.406737 -0.913545 -0
    outer loop
      vertex 5 8.66025 20
      vertex 3.09017 9.51056 -20
      vertex 5 8.66025 -20
    endloop
  endfacet
  facet normal 0.743145 -0.669131 0
    outer loop
      vertex -8.09017 5.87785 20
      vertex -6.69131 7.43145 -20
      vertex -6.69131 7.43145 20
    endloop
  endfacet
  facet normal 0.743145 -0.669131 0
    outer loop
      vertex -6.69131 7.43145 -20
      vertex -8.09017 5.87785 20
      vertex -8.09017 5.87785 -20
    endloop
  endfacet
  facet normal 0.866026 -0.5 0
    outer loop
      vertex -9.13545 4.06737 20
      vertex -8.09017 5.87785 -20
      vertex -8.09017 5.87785 20
    endloop
  endfacet
  facet normal 0.866026 -0.5 0
    outer loop
      vertex -8.09017 5.87785 -20
      vertex -9.13545 4.06737 20
      vertex -9.13545 4.06737 -20
    endloop
  endfacet
  facet normal 0.406737 -0.913545 0
    outer loop
      vertex -5 8.66025 -20
      vertex -3.09017 9.51056 20
      vertex -5 8.66025 20
    endloop
  endfacet
  facet normal 0.406737 -0.913545 0
    outer loop
      vertex -3.09017 9.51056 20
      vertex -5 8.66025 -20
      vertex -3.09017 9.51056 -20
    endloop
  endfacet
  facet normal -0.951057 0.309017 0
    outer loop
      vertex 9.13545 -4.06737 -20
      vertex 9.78148 -2.07912 20
      vertex 9.78148 -2.07912 -20
    endloop
  endfacet
  facet normal -0.951057 0.309017 0
    outer loop
      vertex 9.78148 -2.07912 20
      vertex 9.13545 -4.06737 -20
      vertex 9.13545 -4.06737 20
    endloop
  endfacet
  facet normal -0.866026 -0.5 0
    outer loop
      vertex 9.13545 4.06737 -20
      vertex 8.09017 5.87785 20
      vertex 8.09017 5.87785 -20
    endloop
  endfacet
  facet normal -0.866026 -0.5 0
    outer loop
      vertex 8.09017 5.87785 20
      vertex 9.13545 4.06737 -20
      vertex 9.13545 4.06737 20
    endloop
  endfacet
  facet normal -0.951057 -0.309017 0
    outer loop
      vertex 9.78148 2.07912 -20
      vertex 9.13545 4.06737 20
      vertex 9.13545 4.06737 -20
    endloop
  endfacet
  facet normal -0.951057 -0.309017 0
    outer loop
      vertex 9.13545 4.06737 20
      vertex 9.78148 2.07912 -20
      vertex 9.78148 2.07912 20
    endloop
  endfacet
  facet normal -0.743145 -0.669131 0
    outer loop
      vertex 8.09017 5.87785 -20
      vertex 6.69131 7.43145 20
      vertex 6.69131 7.43145 -20
    endloop
  endfacet
  facet normal -0.743145 -0.669131 0
    outer loop
      vertex 6.69131 7.43145 20
      vertex 8.09017 5.87785 -20
      vertex 8.09017 5.87785 20
    endloop
  endfacet
  facet normal -0.207911 -0.978148 0
    outer loop
      vertex 1.04528 9.94522 -20
      vertex 3.09017 9.51056 20
      vertex 1.04528 9.94522 20
    endloop
  endfacet
  facet normal -0.207911 -0.978148 -0
    outer loop
      vertex 3.09017 9.51056 20
      vertex 1.04528 9.94522 -20
      vertex 3.09017 9.51056 -20
    endloop
  endfacet
  facet normal 0.951057 -0.309017 0
    outer loop
      vertex -9.78148 2.07912 20
      vertex -9.13545 4.06737 -20
      vertex -9.13545 4.06737 20
    endloop
  endfacet
  facet normal 0.951057 -0.309017 0
    outer loop
      vertex -9.13545 4.06737 -20
      vertex -9.78148 2.07912 20
      vertex -9.78148 2.07912 -20
    endloop
  endfacet
  facet normal 0.587785 -0.809017 0
    outer loop
      vertex -6.69131 7.43145 -20
      vertex -5 8.66025 20
      vertex -6.69131 7.43145 20
    endloop
  endfacet
  facet normal 0.587785 -0.809017 0
    outer loop
      vertex -5 8.66025 20
      vertex -6.69131 7.43145 -20
      vertex -5 8.66025 -20
    endloop
  endfacet
  facet normal 0.207911 -0.978148 0
    outer loop
      vertex -3.09017 9.51056 -20
      vertex -1.04528 9.94522 20
      vertex -3.09017 9.51056 20
    endloop
  endfacet
  facet normal 0.207911 -0.978148 0
    outer loop
      vertex -1.04528 9.94522 20
      vertex -3.09017 9.51056 -20
      vertex -1.04528 9.94522 -20
    endloop
  endfacet
  facet normal -0.994522 0.104529 0
    outer loop
      vertex 9.78148 -2.07912 -20
      vertex 10 0 20
      vertex 10 0 -20
    endloop
  endfacet
  facet normal -0.994522 0.104529 0
    outer loop
      vertex 10 0 20
      vertex 9.78148 -2.07912 -20
      vertex 9.78148 -2.07912 20
    endloop
  endfacet
  facet normal -0.207911 0.978148 0
    outer loop
      vertex 3.09017 -9.51056 -20
      vertex 1.04528 -9.94522 20
      vertex 3.09017 -9.51056 20
    endloop
  endfacet
  facet normal -0.207911 0.978148 0
    outer loop
      vertex 1.04528 -9.94522 20
      vertex 3.09017 -9.51056 -20
      vertex 1.04528 -9.94522 -20
    endloop
  endfacet
  facet normal -0.866026 0.5 0
    outer loop
      vertex 8.09017 -5.87785 -20
      vertex 9.13545 -4.06737 20
      vertex 9.13545 -4.06737 -20
    endloop
  endfacet
  facet normal -0.866026 0.5 0
    outer loop
      vertex 9.13545 -4.06737 20
      vertex 8.09017 -5.87785 -20
      vertex 8.09017 -5.87785 20
    endloop
  endfacet
  facet normal 0.866026 0.5 0
    outer loop
      vertex -8.09017 -5.87785 20
      vertex -9.13545 -4.06737 -20
      vertex -9.13545 -4.06737 20
    endloop
  endfacet
  facet normal 0.866026 0.5 0
    outer loop
      vertex -9.13545 -4.06737 -20
      vertex -8.09017 -5.87785 20
      vertex -8.09017 -5.87785 -20
    endloop
  endfacet
  facet normal -0.587785 0.809017 0
    outer loop
      vertex 6.69131 -7.43145 -20
      vertex 5 -8.66025 20
      vertex 6.69131 -7.43145 20
    endloop
  endfacet
  facet normal -0.587785 0.809017 0
    outer loop
      vertex 5 -8.66025 20
      vertex 6.69131 -7.43145 -20
      vertex 5 -8.66025 -20
    endloop
  endfacet
  facet normal -0.406737 0.913545 0
    outer loop
      vertex 5 -8.66025 -20
      vertex 3.09017 -9.51056 20
      vertex 5 -8.66025 20
    endloop
  endfacet
  facet normal -0.406737 0.913545 0
    outer loop
      vertex 3.09017 -9.51056 20
      vertex 5 -8.66025 -20
      vertex 3.09017 -9.51056 -20
    endloop
  endfacet
  facet normal 0.207911 0.978148 -0
    outer loop
      vertex -1.04528 -9.94522 -20
      vertex -3.09017 -9.51056 20
      vertex -1.04528 -9.94522 20
    endloop
  endfacet
  facet normal 0.207911 0.978148 0
    outer loop
      vertex -3.09017 -9.51056 20
      vertex -1.04528 -9.94522 -20
      vertex -3.09017 -9.51056 -20
    endloop
  endfacet
  facet normal 0.743145 0.669131 0
    outer loop
      vertex -6.69131 -7.43145 20
      vertex -8.09017 -5.87785 -20
      vertex -8.09017 -5.87785 20
    endloop
  endfacet
  facet normal 0.743145 0.669131 0
    outer loop
      vertex -8.09017 -5.87785 -20
      vertex -6.69131 -7.43145 20
      vertex -6.69131 -7.43145 -20
    endloop
  endfacet
  facet normal 0.951057 0.309017 0
    outer loop
      vertex -9.13545 -4.06737 20
      vertex -9.78148 -2.07912 -20
      vertex -9.78148 -2.07912 20
    endloop
  endfacet
  facet normal 0.951057 0.309017 0
    outer loop
      vertex -9.78148 -2.07912 -20
      vertex -9.13545 -4.06737 20
      vertex -9.13545 -4.06737 -20
    endloop
  endfacet
  facet normal 0.994522 0.104529 0
    outer loop
      vertex -9.78148 -2.07912 20
      vertex -10 0 -20
      vertex -10 0 20
    endloop
  endfacet
  facet normal 0.994522 0.104529 0
    outer loop
      vertex -10 0 -20
      vertex -9.78148 -2.07912 20
      vertex -9.78148 -2.07912 -20
    endloop
  endfacet
  facet normal -0.743145 0.669131 0
    outer loop
      vertex 6.69131 -7.43145 -20
      vertex 8.09017 -5.87785 20
      vertex 8.09017 -5.87785 -20
    endloop
  endfacet
  facet normal -0.743145 0.669131 0
    outer loop
      vertex 8.09017 -5.87785 20
      vertex 6.69131 -7.43145 -20
      vertex 6.69131 -7.43145 20
    endloop
  endfacet
  facet normal 0.406737 0.913545 -0
    outer loop
      vertex -3.09017 -9.51056 -20
      vertex -5 -8.66025 20
      vertex -3.09017 -9.51056 20
    endloop
  endfacet
  facet normal 0.406737 0.913545 0
    outer loop
      vertex -5 -8.66025 20
      vertex -3.09017 -9.51056 -20
      vertex -5 -8.66025 -20
    endloop
  endfacet
  facet normal 0.587785 0.809017 -0
    outer loop
      vertex -5 -8.66025 -20
      vertex -6.69131 -7.43145 20
      vertex -5 -8.66025 20
    endloop
  endfacet
  facet normal 0.587785 0.809017 0
    outer loop
      vertex -6.69131 -7.43145 20
      vertex -5 -8.66025 -20
      vertex -6.69131 -7.43145 -20
    endloop
  endfacet
  facet normal -0.866026 -0.5 0
    outer loop
      vertex -10.8645 -15.9326 -10
      vertex -11.9098 -14.1221 20
      vertex -11.9098 -14.1221 -10
    endloop
  endfacet
  facet normal -0.866026 -0.5 0
    outer loop
      vertex -11.9098 -14.1221 20
      vertex -10.8645 -15.9326 -10
      vertex -10.8645 -15.9326 20
    endloop
  endfacet
  facet normal -0.743145 -0.669131 0
    outer loop
      vertex -11.9098 -14.1221 -10
      vertex -13.3087 -12.5686 20
      vertex -13.3087 -12.5686 -10
    endloop
  endfacet
  facet normal -0.743145 -0.669131 0
    outer loop
      vertex -13.3087 -12.5686 20
      vertex -11.9098 -14.1221 -10
      vertex -11.9098 -14.1221 20
    endloop
  endfacet
  facet normal -0.406737 -0.913545 0
    outer loop
      vertex -16.9098 -10.4894 -10
      vertex -15 -11.3397 20
      vertex -16.9098 -10.4894 20
    endloop
  endfacet
  facet normal -0.406737 -0.913545 -0
    outer loop
      vertex -15 -11.3397 20
      vertex -16.9098 -10.4894 -10
      vertex -15 -11.3397 -10
    endloop
  endfacet
  facet normal -0.951057 -0.309017 0
    outer loop
      vertex -10.2185 -17.9209 -10
      vertex -10.8645 -15.9326 20
      vertex -10.8645 -15.9326 -10
    endloop
  endfacet
  facet normal -0.951057 -0.309017 0
    outer loop
      vertex -10.8645 -15.9326 20
      vertex -10.2185 -17.9209 -10
      vertex -10.2185 -17.9209 20
    endloop
  endfacet
  facet normal 0 -1 0
    outer loop
      vertex -20 -10.0548 -10
      vertex -18.9547 -10.0548 20
      vertex -20 -10.0548 20
    endloop
  endfacet
  facet normal 0 -1 -0
    outer loop
      vertex -18.9547 -10.0548 20
      vertex -20 -10.0548 -10
      vertex -18.9547 -10.0548 -10
    endloop
  endfacet
  facet normal -0.587785 -0.809017 0
    outer loop
      vertex -15 -11.3397 -10
      vertex -13.3087 -12.5686 20
      vertex -15 -11.3397 20
    endloop
  endfacet
  facet normal -0.587785 -0.809017 -0
    outer loop
      vertex -13.3087 -12.5686 20
      vertex -15 -11.3397 -10
      vertex -13.3087 -12.5686 -10
    endloop
  endfacet
  facet normal -0.994522 -0.104528 0
    outer loop
      vertex -10 -20 -10
      vertex -10.2185 -17.9209 20
      vertex -10.2185 -17.9209 -10
    endloop
  endfacet
  facet normal -0.994522 -0.104528 0
    outer loop
      vertex -10.2185 -17.9209 20
      vertex -10 -20 -10
      vertex -10 -20 20
    endloop
  endfacet
  facet normal -0.207911 -0.978148 0
    outer loop
      vertex -18.9547 -10.0548 -10
      vertex -16.9098 -10.4894 20
      vertex -18.9547 -10.0548 20
    endloop
  endfacet
  facet normal -0.207911 -0.978148 -0
    outer loop
      vertex -16.9098 -10.4894 20
      vertex -18.9547 -10.0548 -10
      vertex -16.9098 -10.4894 -10
    endloop
  endfacet
  facet normal 0 0 1
    outer loop
      vertex -20 -20 -10
      vertex -10.2185 -17.9209 -10
      vertex -10.8645 -15.9326 -10
    endloop
  endfacet
  facet normal 0 0 1
    outer loop
      vertex -20 -20 -10
      vertex -10.8645 -15.9326 -10
      vertex -11.9098 -14.1221 -10
    endloop
  endfacet
  facet normal 0 0 1
    outer loop
      vertex -20 -20 -10
      vertex -11.9098 -14.1221 -10
      vertex -13.3087 -12.5686 -10
    endloop
  endfacet
  facet normal 0 0 1
    outer loop
      vertex -20 -20 -10
      vertex -13.3087 -12.5686 -10
      vertex -15 -11.3397 -10
    endloop
  endfacet
  facet normal 0 0 1
    outer loop
      vertex -20 -20 -10
      vertex -15 -11.3397 -10
      vertex -16.9098 -10.4894 -10
    endloop
  endfacet
  facet normal 0 0 1
    outer loop
      vertex -20 -20 -10
      vertex -16.9098 -10.4894 -10
      vertex -18.9547 -10.0548 -10
    endloop
  endfacet
  facet normal 0 0 1
    outer loop
      vertex -20 -20 -10
      vertex -18.9547 -10.0548 -10
      vertex -20 -10.0548 -10
    endloop
  endfacet
  facet normal 0 0 1
    outer loop
      vertex -10.2185 -17.9209 -10
      vertex -20 -20 -10
      vertex -10 -20 -10
    endloop
  endfacet
  facet normal -0.994522 0.104528 0
    outer loop
      vertex -10.2185 17.9209 -10
      vertex -10 20 20
      vertex -10 20 -10
    endloop
  endfacet
  facet normal -0.994522 0.104528 0
    outer loop
      vertex -10 20 20
      vertex -10.2185 17.9209 -10
      vertex -10.2185 17.9209 20
    endloop
  endfacet
  facet normal -0.587785 0.809017 0
    outer loop
      vertex -13.3087 12.5686 -10
      vertex -15 11.3397 20
      vertex -13.3087 12.5686 20
    endloop
  endfacet
  facet normal -0.587785 0.809017 0
    outer loop
      vertex -15 11.3397 20
      vertex -13.3087 12.5686 -10
      vertex -15 11.3397 -10
    endloop
  endfacet
  facet normal -0.951057 0.309017 0
    outer loop
      vertex -10.8645 15.9326 -10
      vertex -10.2185 17.9209 20
      vertex -10.2185 17.9209 -10
    endloop
  endfacet
  facet normal -0.951057 0.309017 0
    outer loop
      vertex -10.2185 17.9209 20
      vertex -10.8645 15.9326 -10
      vertex -10.8645 15.9326 20
    endloop
  endfacet
  facet normal -0.866026 0.5 0
    outer loop
      vertex -11.9098 14.1221 -10
      vertex -10.8645 15.9326 20
      vertex -10.8645 15.9326 -10
    endloop
  endfacet
  facet normal -0.866026 0.5 0
    outer loop
      vertex -10.8645 15.9326 20
      vertex -11.9098 14.1221 -10
      vertex -11.9098 14.1221 20
    endloop
  endfacet
  facet normal -0.207911 0.978148 0
    outer loop
      vertex -16.9098 10.4894 -10
      vertex -18.9547 10.0548 20
      vertex -16.9098 10.4894 20
    endloop
  endfacet
  facet normal -0.207911 0.978148 0
    outer loop
      vertex -18.9547 10.0548 20
      vertex -16.9098 10.4894 -10
      vertex -18.9547 10.0548 -10
    endloop
  endfacet
  facet normal -0.406737 0.913545 0
    outer loop
      vertex -15 11.3397 -10
      vertex -16.9098 10.4894 20
      vertex -15 11.3397 20
    endloop
  endfacet
  facet normal -0.406737 0.913545 0
    outer loop
      vertex -16.9098 10.4894 20
      vertex -15 11.3397 -10
      vertex -16.9098 10.4894 -10
    endloop
  endfacet
  facet normal 0 1 -0
    outer loop
      vertex -18.9547 10.0548 -10
      vertex -20 10.0548 20
      vertex -18.9547 10.0548 20
    endloop
  endfacet
  facet normal 0 1 0
    outer loop
      vertex -20 10.0548 20
      vertex -18.9547 10.0548 -10
      vertex -20 10.0548 -10
    endloop
  endfacet
  facet normal -0 0 1
    outer loop
      vertex -20 20 -10
      vertex -10.2185 17.9209 -10
      vertex -10 20 -10
    endloop
  endfacet
  facet normal 0 0 1
    outer loop
      vertex -10.2185 17.9209 -10
      vertex -20 20 -10
      vertex -10.8645 15.9326 -10
    endloop
  endfacet
  facet normal 0 0 1
    outer loop
      vertex -10.8645 15.9326 -10
      vertex -20 20 -10
      vertex -11.9098 14.1221 -10
    endloop
  endfacet
  facet normal 0 0 1
    outer loop
      vertex -11.9098 14.1221 -10
      vertex -20 20 -10
      vertex -13.3087 12.5686 -10
    endloop
  endfacet
  facet normal 0 0 1
    outer loop
      vertex -13.3087 12.5686 -10
      vertex -20 20 -10
      vertex -15 11.3397 -10
    endloop
  endfacet
  facet normal 0 0 1
    outer loop
      vertex -15 11.3397 -10
      vertex -20 20 -10
      vertex -16.9098 10.4894 -10
    endloop
  endfacet
  facet normal 0 0 1
    outer loop
      vertex -16.9098 10.4894 -10
      vertex -20 20 -10
      vertex -18.9547 10.0548 -10
    endloop
  endfacet
  facet normal 0 0 1
    outer loop
      vertex -18.9547 10.0548 -10
      vertex -20 20 -10
      vertex -20 10.0548 -10
    endloop
  endfacet
  facet normal -0.743145 0.669131 0
    outer loop
      vertex -13.3087 12.5686 -10
      vertex -11.9098 14.1221 20
      vertex -11.9098 14.1221 -10
    endloop
  endfacet
  facet normal -0.743145 0.669131 0
    outer loop
      vertex -11.9098 14.1221 20
      vertex -13.3087 12.5686 -10
      vertex -13.3087 12.5686 20
    endloop
  endfacet
  facet normal 0 0 1
    outer loop
      vertex 20 20 -10
      vertex 18.9547 10.0548 -10
      vertex 20 10.0548 -10
    endloop
  endfacet
  facet normal 0 0 1
    outer loop
      vertex 20 20 -10
      vertex 16.9098 10.4894 -10
      vertex 18.9547 10.0548 -10
    endloop
  endfacet
  facet normal 0 0 1
    outer loop
      vertex 20 20 -10
      vertex 15 11.3397 -10
      vertex 16.9098 10.4894 -10
    endloop
  endfacet
  facet normal 0 0 1
    outer loop
      vertex 20 20 -10
      vertex 13.3087 12.5686 -10
      vertex 15 11.3397 -10
    endloop
  endfacet
  facet normal 0 0 1
    outer loop
      vertex 20 20 -10
      vertex 11.9098 14.1221 -10
      vertex 13.3087 12.5686 -10
    endloop
  endfacet
  facet normal 0 0 1
    outer loop
      vertex 20 20 -10
      vertex 10.8645 15.9326 -10
      vertex 11.9098 14.1221 -10
    endloop
  endfacet
  facet normal 0 0 1
    outer loop
      vertex 20 20 -10
      vertex 10.2185 17.9209 -10
      vertex 10.8645 15.9326 -10
    endloop
  endfacet
  facet normal 0 -0 1
    outer loop
      vertex 10.2185 17.9209 -10
      vertex 20 20 -10
      vertex 10 20 -10
    endloop
  endfacet
  facet normal 0 1 -0
    outer loop
      vertex 20 10.0548 -10
      vertex 18.9547 10.0548 20
      vertex 20 10.0548 20
    endloop
  endfacet
  facet normal 0 1 0
    outer loop
      vertex 18.9547 10.0548 20
      vertex 20 10.0548 -10
      vertex 18.9547 10.0548 -10
    endloop
  endfacet
  facet normal 0.994522 0.104528 0
    outer loop
      vertex 10.2185 17.9209 20
      vertex 10 20 -10
      vertex 10 20 20
    endloop
  endfacet
  facet normal 0.994522 0.104528 0
    outer loop
      vertex 10 20 -10
      vertex 10.2185 17.9209 20
      vertex 10.2185 17.9209 -10
    endloop
  endfacet
  facet normal 0.743145 0.669131 0
    outer loop
      vertex 13.3087 12.5686 20
      vertex 11.9098 14.1221 -10
      vertex 11.9098 14.1221 20
    endloop
  endfacet
  facet normal 0.743145 0.669131 0
    outer loop
      vertex 11.9098 14.1221 -10
      vertex 13.3087 12.5686 20
      vertex 13.3087 12.5686 -10
    endloop
  endfacet
  facet normal 0.951057 0.309017 0
    outer loop
      vertex 10.8645 15.9326 20
      vertex 10.2185 17.9209 -10
      vertex 10.2185 17.9209 20
    endloop
  endfacet
  facet normal 0.951057 0.309017 0
    outer loop
      vertex 10.2185 17.9209 -10
      vertex 10.8645 15.9326 20
      vertex 10.8645 15.9326 -10
    endloop
  endfacet
  facet normal 0.866026 0.5 0
    outer loop
      vertex 11.9098 14.1221 20
      vertex 10.8645 15.9326 -10
      vertex 10.8645 15.9326 20
    endloop
  endfacet
  facet normal 0.866026 0.5 0
    outer loop
      vertex 10.8645 15.9326 -10
      vertex 11.9098 14.1221 20
      vertex 11.9098 14.1221 -10
    endloop
  endfacet
  facet normal 0.406737 0.913545 -0
    outer loop
      vertex 16.9098 10.4894 -10
      vertex 15 11.3397 20
      vertex 16.9098 10.4894 20
    endloop
  endfacet
  facet normal 0.406737 0.913545 0
    outer loop
      vertex 15 11.3397 20
      vertex 16.9098 10.4894 -10
      vertex 15 11.3397 -10
    endloop
  endfacet
  facet normal 0.207911 0.978148 -0
    outer loop
      vertex 18.9547 10.0548 -10
      vertex 16.9098 10.4894 20
      vertex 18.9547 10.0548 20
    endloop
  endfacet
  facet normal 0.207911 0.978148 0
    outer loop
      vertex 16.9098 10.4894 20
      vertex 18.9547 10.0548 -10
      vertex 16.9098 10.4894 -10
    endloop
  endfacet
  facet normal 0.587785 0.809017 -0
    outer loop
      vertex 15 11.3397 -10
      vertex 13.3087 12.5686 20
      vertex 15 11.3397 20
    endloop
  endfacet
  facet normal 0.587785 0.809017 0
    outer loop
      vertex 13.3087 12.5686 20
      vertex 15 11.3397 -10
      vertex 13.3087 12.5686 -10
    endloop
  endfacet
  facet normal 0.207911 -0.978148 0
    outer loop
      vertex 16.9098 -10.4894 -10
      vertex 18.9547 -10.0548 20
      vertex 16.9098 -10.4894 20
    endloop
  endfacet
  facet normal 0.207911 -0.978148 0
    outer loop
      vertex 18.9547 -10.0548 20
      vertex 16.9098 -10.4894 -10
      vertex 18.9547 -10.0548 -10
    endloop
  endfacet
  facet normal 0.743145 -0.669131 0
    outer loop
      vertex 11.9098 -14.1221 20
      vertex 13.3087 -12.5686 -10
      vertex 13.3087 -12.5686 20
    endloop
  endfacet
  facet normal 0.743145 -0.669131 0
    outer loop
      vertex 13.3087 -12.5686 -10
      vertex 11.9098 -14.1221 20
      vertex 11.9098 -14.1221 -10
    endloop
  endfacet
  facet normal 0.587785 -0.809017 0
    outer loop
      vertex 13.3087 -12.5686 -10
      vertex 15 -11.3397 20
      vertex 13.3087 -12.5686 20
    endloop
  endfacet
  facet normal 0.587785 -0.809017 0
    outer loop
      vertex 15 -11.3397 20
      vertex 13.3087 -12.5686 -10
      vertex 15 -11.3397 -10
    endloop
  endfacet
  facet normal 0 -1 0
    outer loop
      vertex 18.9547 -10.0548 -10
      vertex 20 -10.0548 20
      vertex 18.9547 -10.0548 20
    endloop
  endfacet
  facet normal 0 -1 -0
    outer loop
      vertex 20 -10.0548 20
      vertex 18.9547 -10.0548 -10
      vertex 20 -10.0548 -10
    endloop
  endfacet
  facet normal 0.951057 -0.309017 0
    outer loop
      vertex 10.2185 -17.9209 20
      vertex 10.8645 -15.9326 -10
      vertex 10.8645 -15.9326 20
    endloop
  endfacet
  facet normal 0.951057 -0.309017 0
    outer loop
      vertex 10.8645 -15.9326 -10
      vertex 10.2185 -17.9209 20
      vertex 10.2185 -17.9209 -10
    endloop
  endfacet
  facet normal -0 0 1
    outer loop
      vertex 18.9547 -10.0548 -10
      vertex 20 -20 -10
      vertex 20 -10.0548 -10
    endloop
  endfacet
  facet normal -0 0 1
    outer loop
      vertex 16.9098 -10.4894 -10
      vertex 20 -20 -10
      vertex 18.9547 -10.0548 -10
    endloop
  endfacet
  facet normal -0 0 1
    outer loop
      vertex 15 -11.3397 -10
      vertex 20 -20 -10
      vertex 16.9098 -10.4894 -10
    endloop
  endfacet
  facet normal -0 0 1
    outer loop
      vertex 13.3087 -12.5686 -10
      vertex 20 -20 -10
      vertex 15 -11.3397 -10
    endloop
  endfacet
  facet normal -0 0 1
    outer loop
      vertex 11.9098 -14.1221 -10
      vertex 20 -20 -10
      vertex 13.3087 -12.5686 -10
    endloop
  endfacet
  facet normal -0 0 1
    outer loop
      vertex 10.8645 -15.9326 -10
      vertex 20 -20 -10
      vertex 11.9098 -14.1221 -10
    endloop
  endfacet
  facet normal -0 0 1
    outer loop
      vertex 10.2185 -17.9209 -10
      vertex 20 -20 -10
      vertex 10.8645 -15.9326 -10
    endloop
  endfacet
  facet normal 0 0 1
    outer loop
      vertex 20 -20 -10
      vertex 10.2185 -17.9209 -10
      vertex 10 -20 -10
    endloop
  endfacet
  facet normal 0.866026 -0.5 0
    outer loop
      vertex 10.8645 -15.9326 20
      vertex 11.9098 -14.1221 -10
      vertex 11.9098 -14.1221 20
    endloop
  endfacet
  facet normal 0.866026 -0.5 0
    outer loop
      vertex 11.9098 -14.1221 -10
      vertex 10.8645 -15.9326 20
      vertex 10.8645 -15.9326 -10
    endloop
  endfacet
  facet normal 0.994522 -0.104528 0
    outer loop
      vertex 10 -20 20
      vertex 10.2185 -17.9209 -10
      vertex 10.2185 -17.9209 20
    endloop
  endfacet
  facet normal 0.994522 -0.104528 0
    outer loop
      vertex 10.2185 -17.9209 -10
      vertex 10 -20 20
      vertex 10 -20 -10
    endloop
  endfacet
  facet normal 0.406737 -0.913545 0
    outer loop
      vertex 15 -11.3397 -10
      vertex 16.9098 -10.4894 20
      vertex 15 -11.3397 20
    endloop
  endfacet
  facet normal 0.406737 -0.913545 0
    outer loop
      vertex 16.9098 -10.4894 20
      vertex 15 -11.3397 -10
      vertex 16.9098 -10.4894 -10
    endloop
  endfacet
endsolid OpenSCAD_Model
